<?xml version="1.0" standalone="no"?>
<!DOCTYPE svg PUBLIC "-//W3C//DTD SVG 20010904//EN"
 "http://www.w3.org/TR/2001/REC-SVG-20010904/DTD/svg10.dtd">
<svg version="1.0" xmlns="http://www.w3.org/2000/svg"
 width="5000.000000pt" height="5000.000000pt" viewBox="0 0 5000.000000 5000.000000"
 preserveAspectRatio="xMidYMid meet">
<metadata>
Created by potrace 1.11, written by Peter Selinger 2001-2013
</metadata>
<g transform="translate(0.000000,5000.000000) scale(0.100000,-0.100000)"
fill="#000000" stroke="none">
<path d="M3855 46100 c33 -33 62 -60 64 -60 3 0 -21 27 -54 60 -33 33 -62 60
-64 60 -3 0 21 -27 54 -60z"/>
<path d="M46125 46098 l-60 -63 63 60 c58 55 67 65 59 65 -1 0 -29 -28 -62
-62z"/>
<path d="M4870 45075 c118 -118 217 -215 220 -215 3 0 -92 97 -210 215 -118
118 -217 215 -220 215 -3 0 92 -97 210 -215z"/>
<path d="M45110 45073 l-215 -218 218 215 c119 118 217 216 217 217 0 8 -20
-12 -220 -214z"/>
<path d="M5435 44500 c1207 -1235 1821 -1924 2241 -2513 801 -1121 1036 -2111
838 -3517 -153 -1081 -547 -2048 -1053 -2582 -273 -288 -589 -467 -1083 -613
-54 -16 -96 -30 -94 -32 1 -2 99 21 217 51 308 77 444 99 619 99 224 0 372
-44 546 -164 417 -289 835 -1090 872 -1672 15 -228 -13 -386 -98 -566 -28 -58
-49 -103 -46 -101 2 3 31 46 64 95 83 127 133 179 203 214 77 38 145 47 234
28 213 -45 457 -195 612 -377 98 -115 169 -275 175 -393 0 -18 4 16 8 75 7
118 17 143 80 186 48 32 101 44 204 43 155 -1 288 -51 377 -142 l49 -50 -25
49 c-29 58 -31 82 -10 122 51 98 246 152 365 100 37 -16 40 -16 20 -2 -42 29
-70 64 -70 88 0 87 96 173 197 175 l48 1 -44 9 c-52 10 -78 31 -86 70 -9 39
25 107 67 137 l33 22 -33 0 c-66 0 -92 67 -92 239 0 518 438 1086 1087 1410
401 200 861 292 1387 278 810 -22 1679 -274 3059 -886 288 -128 613 -278 1302
-601 1093 -512 1668 -772 2795 -1260 1043 -452 1473 -648 1935 -880 719 -362
1281 -708 1685 -1038 289 -237 555 -559 646 -783 29 -70 24 -87 -13 -44 -80
95 -199 218 -282 293 -401 357 -1145 789 -1986 1152 -500 216 -945 384 -2090
790 -1072 380 -1564 561 -2622 966 -557 213 -913 348 -948 358 -202 62 1672
-671 2485 -972 179 -66 521 -190 760 -277 798 -287 1073 -387 1310 -475 1116
-417 1885 -787 2575 -1238 622 -406 854 -695 1016 -1269 23 -81 50 -164 60
-184 50 -100 58 -332 56 -1684 0 -632 -2 -1118 -4 -1080 -25 636 -69 983 -198
1570 -73 332 -83 387 -94 511 -7 76 -8 81 -10 32 0 -32 -5 -58 -11 -58 -5 0
-47 57 -93 128 -105 160 -199 272 -368 438 -204 199 -362 333 -544 459 -96 67
-71 43 55 -51 131 -99 348 -308 453 -439 242 -300 388 -606 503 -1053 44 -172
55 -243 33 -212 -9 12 -10 11 -4 -5 167 -474 239 -887 275 -1565 12 -228 11
-1846 -1 -1895 -4 -16 -13 -94 -18 -173 -33 -426 -122 -845 -248 -1162 -266
-669 -723 -1093 -1317 -1222 -137 -30 -444 -32 -581 -5 -636 129 -1116 612
-1246 1255 -29 142 -36 386 -15 532 112 795 727 1385 1687 1620 206 50 590
106 766 111 38 2 33 3 -27 9 -41 4 -92 3 -115 -1 -59 -12 -137 -11 -130 1 3 6
-1 10 -10 10 -9 0 -13 -5 -10 -10 4 -7 -3 -9 -22 -5 -17 4 -23 3 -16 -2 8 -5
-43 -14 -130 -21 -78 -7 -162 -15 -187 -18 -33 -3 -40 -2 -25 5 18 9 17 10 -7
10 -20 1 -26 -3 -22 -14 4 -10 0 -15 -14 -15 -10 0 -41 -3 -67 -7 -29 -4 -46
-2 -42 3 3 6 -6 10 -21 11 -15 0 -19 -1 -9 -4 35 -9 15 -21 -60 -33 -109 -17
-368 -83 -492 -125 -80 -27 -107 -32 -113 -22 -7 11 -12 3 -9 -16 1 -5 -8 -6
-19 -2 -12 4 -27 1 -35 -5 -8 -7 -15 -9 -15 -5 0 4 -11 0 -25 -9 -13 -9 -31
-16 -40 -16 -8 0 -15 -5 -15 -12 0 -6 -3 -9 -6 -5 -4 3 -21 -1 -38 -10 -17
-10 -34 -16 -38 -15 -5 1 -8 -3 -8 -9 0 -5 -4 -7 -10 -4 -5 3 -10 1 -10 -5 0
-6 -4 -8 -10 -5 -5 3 -10 1 -10 -4 0 -6 -3 -10 -7 -9 -17 4 -53 -14 -47 -24 4
-7 2 -8 -4 -4 -7 4 -12 2 -12 -4 0 -6 -4 -8 -10 -5 -5 3 -17 -3 -26 -14 -9
-10 -23 -17 -30 -14 -7 2 -17 -5 -23 -16 -7 -12 -17 -18 -27 -14 -9 3 -14 0
-12 -8 2 -9 -4 -13 -15 -11 -10 2 -16 -3 -15 -10 2 -8 -4 -12 -15 -10 -10 2
-16 -3 -15 -10 2 -8 -4 -12 -16 -10 -10 2 -15 -1 -12 -6 3 -5 -2 -16 -11 -23
-14 -12 -16 -12 -9 0 6 9 5 12 -5 9 -8 -3 -13 -11 -11 -17 1 -7 -2 -10 -8 -6
-14 9 -42 -14 -33 -28 3 -6 1 -7 -6 -3 -6 4 -30 -7 -54 -26 -23 -18 -36 -25
-29 -16 22 27 149 121 244 181 48 30 84 58 80 62 -4 5 -2 5 4 2 11 -6 146 60
152 75 2 4 8 6 13 2 5 -3 9 0 9 5 0 6 3 10 8 10 20 -3 42 2 54 14 7 6 22 14
33 15 11 2 23 8 26 14 3 5 9 9 13 8 15 -4 66 12 66 21 0 6 4 8 9 4 5 -3 12 -1
16 5 4 6 11 8 16 5 5 -4 9 -1 9 5 0 7 7 10 15 7 8 -4 17 -2 20 4 4 5 10 7 15
4 5 -3 11 -1 15 5 4 6 10 8 15 5 5 -3 11 -1 15 5 4 7 12 7 25 0 27 -15 34 -12
16 6 -15 14 -25 13 -118 -16 -138 -43 -281 -100 -411 -165 -494 -247 -849
-606 -1132 -1145 -48 -91 -91 -169 -96 -174 -20 -22 -7 62 25 159 36 107 114
272 173 363 18 29 31 57 27 63 -3 5 -1 8 4 7 14 -4 84 90 77 102 -4 6 -1 9 5
8 7 -2 17 6 23 16 7 11 24 30 39 44 15 13 27 27 25 30 -1 4 30 38 68 76 39 38
61 64 50 58 -24 -13 -155 -145 -152 -153 1 -3 -15 -20 -35 -38 -21 -18 -38
-42 -38 -53 0 -10 -4 -17 -9 -14 -22 14 -209 -265 -305 -454 -113 -222 -198
-464 -260 -744 -35 -157 -45 -172 -46 -71 0 157 52 403 129 609 83 221 219
460 371 651 126 158 361 374 518 474 29 18 51 35 49 38 -7 6 -37 -8 -37 -18 0
-5 -7 -9 -15 -9 -8 0 -15 -4 -15 -10 0 -5 -7 -10 -15 -10 -8 0 -15 -4 -15 -9
0 -10 -39 -27 -53 -23 -5 1 -6 -1 -3 -6 3 -5 -5 -15 -16 -23 -12 -8 -30 -22
-40 -31 -10 -10 -22 -18 -27 -18 -5 0 -14 -7 -21 -15 -7 -8 -16 -12 -21 -9 -5
3 -8 2 -7 -3 4 -12 -52 -64 -63 -58 -5 3 -6 -1 -3 -9 4 -10 1 -16 -8 -16 -19
0 -160 -144 -151 -154 4 -4 4 -6 -2 -4 -19 6 -162 -167 -255 -307 -55 -84 -82
-117 -59 -75 7 14 12 28 11 33 -1 4 3 7 8 7 6 0 10 7 10 15 0 8 5 15 10 15 6
0 10 6 10 14 0 8 7 17 16 20 8 3 13 10 10 15 -3 5 1 11 9 15 8 3 15 12 15 20
0 7 7 16 15 20 8 3 15 12 15 20 0 7 7 16 15 20 8 3 15 12 15 20 0 9 9 20 20
26 11 6 19 18 18 27 -2 9 10 23 26 32 16 9 32 23 34 30 3 9 0 11 -9 6 -30 -17
161 171 251 247 52 44 149 116 215 160 95 63 121 76 125 63 5 -14 7 -14 25 0
16 12 17 14 3 9 -30 -10 -20 14 12 31 17 9 30 11 30 5 0 -5 -4 -10 -10 -10 -5
0 -10 -5 -10 -11 0 -5 13 -3 29 7 17 10 27 23 24 31 -4 9 22 26 78 53 46 21
86 35 87 29 2 -5 8 -9 13 -9 4 0 6 6 3 14 -3 9 6 18 27 25 27 9 30 9 19 -4
-11 -13 -10 -14 4 -9 9 3 16 11 16 18 0 6 15 18 33 25 42 18 51 19 59 6 5 -6
8 -4 8 5 0 18 192 85 215 76 8 -3 17 -1 20 5 4 5 11 6 17 3 7 -5 8 -2 3 6 -6
10 -2 11 19 6 20 -5 26 -4 20 5 -5 9 -1 10 14 7 12 -4 22 -2 22 4 0 5 9 6 20
3 12 -4 20 -2 20 5 0 7 8 9 20 5 12 -4 20 -2 20 5 0 7 8 10 20 7 10 -3 20 -1
22 4 2 5 21 10 44 12 23 2 46 7 53 11 6 4 16 4 21 1 6 -4 17 -2 23 4 13 10 21
11 80 12 15 1 27 6 27 11 0 6 -14 8 -32 5 -18 -3 -54 -9 -80 -13 -27 -3 -48
-10 -48 -14 0 -5 -8 -6 -18 -3 -43 11 -456 -100 -645 -173 -152 -59 -404 -187
-532 -272 -520 -341 -896 -821 -1185 -1512 -26 -63 -85 -214 -130 -335 -131
-351 -197 -472 -265 -489 -79 -20 -159 98 -201 294 -27 125 -25 366 5 525 44
240 151 504 290 717 99 152 178 248 325 394 72 72 127 127 122 122 -21 -17
-28 -7 -10 14 23 27 -86 -56 -181 -137 -229 -195 -399 -372 -715 -745 -251
-297 -338 -389 -430 -458 -125 -95 -217 -114 -295 -61 -135 93 -163 387 -65
681 139 414 488 778 990 1032 610 309 1470 471 2668 503 133 3 245 10 248 14
4 7 -166 5 -394 -5 -55 -3 -90 -1 -87 5 8 11 -9 11 -61 -1 -22 -5 -110 -12
-195 -15 -85 -3 -190 -8 -234 -11 -44 -3 -108 -5 -142 -4 -34 0 -64 -4 -67 -9
-3 -4 -27 -7 -53 -4 -26 2 -54 0 -63 -3 -14 -7 -82 -12 -173 -13 -21 0 -42 -3
-47 -6 -6 -4 -38 -8 -73 -10 -98 -6 -406 -52 -597 -91 -362 -72 -677 -169
-996 -307 -55 -24 -81 -31 -81 -22 0 8 7 11 15 7 10 -3 13 -1 8 6 -5 8 -1 10
10 5 13 -5 15 -3 9 7 -5 8 -4 11 2 7 12 -8 153 52 153 64 0 4 -13 3 -30 -2
-16 -6 -30 -15 -30 -20 0 -4 -7 -6 -15 -3 -8 4 -15 1 -15 -6 0 -6 -4 -8 -10
-5 -5 3 -10 2 -10 -3 0 -5 -7 -9 -15 -9 -22 0 -95 -35 -95 -45 0 -5 -4 -6 -10
-3 -5 3 -10 1 -10 -5 0 -6 -4 -8 -10 -5 -5 3 -10 2 -10 -4 0 -6 -10 -15 -21
-22 -15 -7 -19 -8 -15 0 5 7 1 9 -8 5 -9 -3 -13 -10 -10 -15 3 -5 -3 -6 -12
-2 -12 4 -15 3 -10 -5 5 -8 1 -10 -10 -5 -13 5 -15 3 -9 -7 5 -9 4 -11 -3 -6
-14 9 -95 -32 -87 -44 3 -5 0 -12 -6 -16 -8 -4 -9 -3 -5 4 10 17 -7 15 -30 -4
-17 -14 -17 -15 -1 -10 11 4 16 2 12 -5 -4 -6 -14 -8 -22 -5 -19 8 -76 -26
-229 -135 -68 -49 -124 -86 -124 -84 0 11 164 135 275 207 129 85 405 226 548
279 58 22 83 35 75 41 -8 5 -1 6 16 2 19 -5 27 -3 22 4 -4 6 2 8 16 4 13 -3
19 -1 15 5 -5 7 1 9 15 5 13 -3 19 -1 15 5 -5 7 1 9 15 5 13 -3 19 -1 15 5 -5
7 1 9 15 5 11 -3 19 -1 16 4 -4 5 8 10 25 10 17 1 33 6 35 12 1 5 12 7 24 4
13 -3 19 -1 15 5 -5 7 1 9 15 5 12 -3 19 -1 15 4 -3 6 10 10 30 10 20 0 38 5
40 11 2 6 13 9 23 6 11 -3 20 -1 20 5 0 6 9 8 20 5 11 -3 20 -1 20 3 0 5 17
10 37 11 20 1 39 5 42 10 3 4 20 8 37 9 18 1 40 5 50 9 11 4 26 7 36 6 9 -1
19 2 22 8 3 5 15 7 26 4 11 -3 20 0 20 6 0 7 9 9 25 5 15 -4 25 -2 25 4 0 6
11 9 24 6 14 -2 27 0 31 5 3 5 16 8 30 5 13 -2 26 0 30 5 3 5 16 8 30 5 13 -2
26 0 30 5 5 9 24 8 68 -4 17 -5 19 -4 7 4 -8 6 -13 11 -10 12 8 2 73 9 105 12
17 1 40 6 52 10 13 5 31 3 43 -3 12 -6 20 -7 20 -1 0 5 8 12 18 14 45 12 -61
5 -199 -13 -886 -117 -1539 -346 -2109 -738 -52 -36 -160 -113 -240 -173 -162
-120 -214 -149 -232 -131 -29 29 69 186 198 316 231 232 550 415 974 558 80
27 133 47 118 45 -16 -2 -28 0 -28 4 0 5 10 9 23 10 12 0 17 3 11 5 -29 12
-414 -99 -742 -212 -372 -129 -421 -144 -492 -151 -53 -4 -68 -2 -79 10 -53
65 129 237 381 362 483 239 1201 334 2286 305 353 -9 953 -35 1387 -60 225
-13 314 -13 295 0 -9 6 -46 8 -87 5 -42 -3 -74 -1 -78 4 -3 6 -37 8 -81 5 -50
-3 -74 -1 -69 5 4 7 -24 9 -82 6 -60 -2 -82 -1 -68 6 14 7 2 8 -42 4 -40 -3
-65 -1 -69 7 -5 7 -30 9 -76 5 -49 -4 -67 -3 -62 5 5 8 -17 10 -77 5 -56 -4
-77 -2 -64 4 14 6 -9 8 -70 5 -49 -2 -79 -1 -66 3 35 9 -769 68 -1246 91 -292
14 -942 14 -1202 0 -113 -7 -231 -10 -261 -8 l-55 3 40 13 c198 61 753 88
1273 61 147 -8 307 -14 356 -13 53 0 81 -3 70 -8 -11 -5 11 -7 53 -4 47 2 70
0 66 -7 -4 -6 14 -8 51 -5 31 3 59 1 62 -4 7 -11 74 -9 99 3 14 7 2 8 -40 5
-33 -3 -54 -2 -48 2 7 4 -146 25 -340 46 -444 48 -742 85 -770 95 -48 19 18
24 241 18 331 -8 618 -38 1497 -157 1355 -183 1916 -235 2725 -252 146 -3 238
-4 205 -2 -201 11 -408 27 -530 40 -140 15 -431 58 -542 80 -16 3 -37 6 -48 7
-11 1 -25 5 -32 10 -6 4 -18 4 -26 1 -8 -3 -18 -1 -21 4 -3 6 -15 8 -26 5 -11
-3 -20 -1 -20 5 0 6 -9 8 -20 5 -11 -3 -20 -1 -20 4 0 6 -12 8 -26 5 -17 -3
-25 -1 -21 5 4 6 -4 8 -20 5 -16 -3 -24 -1 -20 5 4 6 -4 8 -20 5 -18 -3 -24
-1 -19 6 4 8 2 10 -8 6 -21 -8 -261 57 -481 131 -816 272 -1572 712 -2380
1385 -332 276 -680 608 -850 813 -409 491 -321 701 407 978 91 35 165 65 164
67 -2 1 -59 -13 -127 -32 -314 -86 -535 -95 -848 -35 -317 61 -1532 395 -1991
548 -390 130 -583 213 -1065 453 -176 88 -317 157 -314 154 3 -3 77 -47 165
-97 454 -260 776 -484 982 -683 316 -306 320 -496 14 -704 -163 -111 -416
-232 -729 -350 -643 -243 -1004 -295 -1323 -191 -94 31 -246 106 -395 196
-189 114 -190 114 -26 -8 564 -421 669 -886 346 -1531 -135 -269 -348 -558
-595 -808 -296 -299 -570 -466 -823 -500 -178 -25 -360 21 -729 184 -69 30
-39 8 58 -43 413 -218 621 -484 706 -903 21 -102 23 -141 23 -388 0 -298 -8
-375 -66 -664 -202 -996 -804 -2174 -1415 -2767 -361 -350 -695 -511 -1189
-573 -153 -20 -402 -36 -575 -37 -272 -3 -288 -14 -30 -21 732 -21 1111 -146
1435 -472 406 -409 645 -1087 741 -2096 21 -227 30 -894 15 -1175 -84 -1593
-508 -3239 -1180 -4583 -494 -987 -1099 -1817 -2147 -2942 -344 -369 -715
-751 -1484 -1525 -404 -407 -620 -627 -480 -490 1765 1729 2679 2529 3515
3077 941 618 1805 927 2840 1018 206 18 664 24 900 11 1651 -89 3268 -610
4311 -1388 695 -519 1133 -1115 1268 -1725 50 -229 60 -345 61 -728 l0 -355
12 180 c47 673 131 999 325 1256 254 338 759 564 1397 629 151 15 476 12 625
-5 342 -40 661 -149 892 -303 203 -136 318 -276 394 -478 29 -75 30 -77 23
-29 -5 28 -8 104 -8 170 0 107 3 125 24 170 66 135 251 247 486 296 86 18 285
16 367 -4 145 -35 273 -119 318 -207 l18 -35 -5 66 c-5 63 -4 67 27 103 85 96
261 121 365 51 19 -14 35 -20 35 -14 0 5 11 21 25 34 18 19 35 25 68 25 23 0
48 -5 53 -10 8 -8 15 -6 24 5 18 21 152 21 170 0 9 -11 16 -13 24 -5 5 5 30
10 53 10 33 0 50 -6 68 -25 14 -13 25 -29 25 -34 0 -6 16 0 35 14 104 70 280
45 365 -51 31 -36 32 -40 27 -103 l-5 -66 18 35 c45 88 173 172 318 207 82 20
281 22 367 4 235 -49 420 -161 486 -296 21 -45 24 -63 24 -170 0 -66 -3 -142
-8 -170 -7 -48 -6 -46 23 29 76 202 191 342 394 478 231 154 550 263 892 303
149 17 474 20 625 5 638 -65 1143 -291 1397 -629 194 -257 278 -583 325 -1256
l12 -180 0 355 c1 383 11 499 61 728 168 760 817 1506 1802 2074 1358 781
3398 1193 4952 998 895 -112 1707 -425 2565 -988 836 -548 1750 -1348 3515
-3077 140 -137 -76 83 -480 490 -769 774 -1140 1156 -1484 1525 -1048 1125
-1653 1955 -2147 2942 -672 1344 -1096 2990 -1180 4583 -15 281 -6 948 15
1175 81 852 262 1460 566 1892 92 131 262 299 386 381 299 198 630 278 1224
295 258 7 242 18 -30 21 -277 2 -592 31 -793 72 -278 56 -550 184 -782 369
-742 590 -1472 2006 -1652 3205 -14 93 -18 182 -18 395 0 247 2 286 23 388 85
419 293 685 706 903 97 51 127 73 59 43 -451 -198 -643 -231 -885 -148 -311
105 -672 413 -999 851 -319 426 -478 848 -440 1171 35 294 199 540 522 781
164 122 163 122 -26 8 -149 -90 -301 -165 -395 -196 -319 -104 -680 -52 -1323
191 -313 118 -566 239 -729 350 -306 208 -302 398 14 704 206 199 528 423 982
683 88 50 162 94 165 97 3 3 -138 -66 -314 -154 -482 -240 -675 -323 -1065
-453 -459 -153 -1674 -487 -1991 -548 -313 -60 -534 -51 -848 35 -68 19 -125
33 -127 32 -1 -2 73 -32 164 -67 728 -277 816 -487 407 -978 -170 -205 -518
-537 -850 -813 -808 -673 -1564 -1113 -2380 -1385 -220 -74 -460 -139 -481
-131 -10 4 -12 2 -8 -6 5 -7 -1 -9 -19 -6 -16 3 -24 1 -20 -5 4 -6 -4 -8 -20
-5 -16 3 -24 1 -20 -5 4 -6 -4 -8 -21 -5 -14 3 -26 1 -26 -5 0 -5 -9 -7 -20
-4 -11 3 -20 1 -20 -5 0 -6 -9 -8 -20 -5 -11 3 -23 1 -26 -5 -3 -5 -13 -7 -21
-4 -8 3 -20 3 -26 -1 -7 -5 -21 -9 -32 -10 -11 -1 -32 -4 -48 -7 -111 -22
-402 -65 -542 -80 -122 -13 -329 -29 -530 -40 -33 -2 59 -1 205 2 809 17 1370
69 2725 252 879 119 1166 149 1497 157 223 6 289 1 241 -18 -28 -10 -326 -47
-770 -95 -194 -21 -347 -42 -340 -46 6 -4 -15 -5 -48 -2 -42 3 -54 2 -40 -5
25 -12 92 -14 99 -3 3 5 31 7 62 4 37 -3 55 -1 51 5 -4 7 19 9 66 7 42 -3 64
-1 53 4 -11 5 17 8 70 8 49 -1 209 5 356 13 520 27 1075 0 1273 -61 l40 -13
-55 -3 c-30 -2 -148 1 -261 8 -260 14 -910 14 -1202 0 -477 -23 -1281 -82
-1246 -91 13 -4 -16 -5 -66 -3 -61 3 -84 1 -70 -5 13 -6 -8 -8 -64 -4 -60 5
-82 3 -77 -5 5 -8 -13 -9 -62 -5 -46 4 -71 2 -76 -5 -4 -8 -29 -10 -69 -7 -44
4 -56 3 -42 -4 14 -7 -8 -8 -68 -6 -58 3 -86 1 -82 -6 5 -6 -19 -8 -69 -5 -44
3 -78 1 -81 -5 -4 -5 -36 -7 -78 -4 -41 3 -78 1 -87 -5 -19 -13 70 -13 295 0
434 25 1034 51 1387 60 1085 29 1803 -66 2286 -305 252 -125 434 -297 381
-362 -11 -12 -26 -14 -79 -10 -71 7 -120 22 -492 151 -328 113 -713 224 -742
212 -6 -2 -1 -5 12 -5 12 -1 22 -5 22 -10 0 -4 -12 -6 -27 -4 -16 2 37 -18
117 -45 424 -143 743 -326 974 -558 129 -130 227 -287 198 -316 -18 -18 -70
11 -232 131 -80 60 -188 137 -240 173 -570 392 -1223 621 -2109 738 -138 18
-244 25 -198 13 9 -2 17 -9 17 -14 0 -6 8 -5 20 1 12 6 30 8 43 3 12 -4 36 -9
52 -10 32 -3 97 -10 105 -12 3 -1 -2 -6 -10 -12 -12 -8 -10 -9 7 -4 44 12 63
13 68 4 4 -5 17 -7 30 -5 14 3 27 0 30 -5 4 -5 17 -7 30 -5 14 3 27 0 30 -5 4
-5 17 -7 31 -5 13 3 24 0 24 -6 0 -6 10 -8 25 -4 16 4 25 2 25 -5 0 -6 9 -9
20 -6 11 3 23 1 26 -4 3 -6 13 -9 22 -8 10 1 25 -2 36 -6 10 -4 32 -8 50 -9
17 -1 34 -5 37 -9 3 -5 22 -9 42 -10 20 -1 37 -6 37 -11 0 -4 9 -6 20 -3 11 3
20 1 20 -5 0 -6 9 -8 20 -5 10 3 21 0 23 -6 2 -6 20 -11 40 -11 20 0 33 -4 30
-10 -4 -5 3 -7 15 -4 14 4 20 2 15 -5 -4 -6 2 -8 15 -5 12 3 23 1 24 -4 2 -6
18 -11 35 -12 17 0 29 -5 25 -10 -3 -5 5 -7 16 -4 14 4 20 2 15 -5 -4 -6 2 -8
15 -5 14 4 20 2 15 -5 -4 -6 2 -8 15 -5 14 4 20 2 15 -5 -4 -6 2 -8 15 -5 14
4 20 2 16 -4 -5 -7 3 -9 22 -4 17 4 24 3 16 -2 -8 -6 17 -19 75 -41 143 -53
419 -194 548 -279 111 -72 275 -196 275 -207 0 -2 -56 35 -124 84 -153 109
-210 143 -229 135 -8 -3 -18 -1 -22 5 -4 7 1 9 12 5 16 -5 16 -4 -1 10 -23 19
-40 21 -30 4 4 -7 3 -8 -5 -4 -6 4 -9 11 -6 16 8 12 -73 53 -87 44 -7 -5 -8
-3 -3 6 6 10 4 12 -9 7 -11 -5 -15 -3 -10 5 5 8 2 9 -10 5 -9 -4 -15 -3 -12 2
3 5 -1 12 -10 15 -9 4 -13 2 -8 -5 4 -8 0 -7 -15 0 -11 7 -21 16 -21 22 0 6
-4 7 -10 4 -5 -3 -10 -1 -10 5 0 6 -4 8 -10 5 -5 -3 -10 -2 -10 3 0 10 -73 45
-95 45 -8 0 -15 4 -15 9 0 5 -4 6 -10 3 -5 -3 -10 -1 -10 5 0 7 -7 10 -15 6
-8 -3 -15 -1 -15 3 0 5 -13 14 -30 20 -16 5 -30 6 -30 2 0 -12 141 -72 153
-64 6 4 7 1 2 -7 -6 -10 -4 -12 9 -7 11 5 15 3 10 -5 -5 -7 -2 -9 8 -6 8 4 15
1 15 -7 0 -9 -26 -2 -81 22 -319 138 -634 235 -996 307 -191 39 -499 85 -597
91 -35 2 -67 6 -73 10 -5 3 -26 6 -47 6 -91 1 -159 6 -173 13 -9 3 -37 5 -63
3 -26 -3 -50 0 -53 4 -3 5 -33 9 -67 9 -34 -1 -98 1 -142 4 -44 3 -149 8 -234
11 -85 3 -173 10 -195 15 -52 12 -69 12 -61 1 3 -6 -32 -8 -87 -5 -228 10
-398 12 -394 5 3 -4 115 -11 248 -14 725 -19 1350 -90 1838 -208 873 -210
1472 -605 1746 -1152 147 -292 176 -627 68 -792 -79 -122 -196 -123 -354 -3
-92 69 -179 161 -430 458 -316 373 -486 550 -715 745 -95 81 -204 164 -181
137 18 -21 11 -31 -9 -14 -6 5 49 -50 121 -122 203 -202 337 -385 448 -610
126 -255 189 -516 190 -781 0 -274 -63 -478 -164 -530 -93 -48 -161 55 -320
480 -140 375 -226 570 -350 790 -309 554 -726 960 -1245 1215 -188 92 -296
135 -477 190 -165 50 -396 103 -420 97 -10 -3 -18 -2 -18 3 0 4 -21 11 -47 14
-27 4 -63 10 -80 13 -19 3 -33 1 -33 -5 0 -5 12 -10 28 -11 58 -1 66 -2 79
-12 6 -6 17 -8 23 -4 5 3 15 3 21 -1 7 -4 30 -9 53 -11 23 -2 42 -7 44 -12 2
-5 12 -7 22 -4 12 3 20 0 20 -7 0 -7 8 -9 20 -5 12 4 20 2 20 -5 0 -7 8 -9 20
-5 11 3 20 2 20 -3 0 -6 10 -8 22 -4 15 3 19 2 14 -7 -6 -9 0 -10 20 -5 21 5
25 4 19 -6 -5 -8 -4 -11 3 -6 6 3 13 2 17 -3 3 -6 12 -8 20 -5 23 9 215 -58
215 -76 0 -9 3 -11 8 -5 8 13 17 12 60 -6 17 -7 32 -19 32 -25 0 -7 7 -15 16
-18 14 -5 15 -4 4 9 -11 13 -8 13 19 4 21 -7 30 -16 27 -25 -3 -8 -1 -14 3
-14 5 0 11 4 13 9 2 6 41 -8 87 -29 56 -27 82 -44 78 -53 -3 -8 7 -21 24 -31
16 -10 29 -12 29 -7 0 6 -4 11 -10 11 -5 0 -10 5 -10 10 0 6 13 4 30 -5 32
-17 42 -41 13 -31 -15 5 -14 3 2 -9 18 -14 20 -14 25 0 4 13 30 0 125 -63 66
-44 163 -116 215 -160 90 -76 281 -264 251 -247 -9 5 -12 3 -9 -6 2 -7 18 -21
34 -30 16 -9 28 -23 26 -32 -1 -9 7 -21 18 -27 11 -6 20 -17 20 -26 0 -8 7
-17 15 -20 8 -4 15 -13 15 -20 0 -8 7 -17 15 -20 8 -4 15 -13 15 -20 0 -8 7
-17 15 -20 8 -4 12 -10 9 -15 -3 -5 2 -12 10 -15 9 -3 16 -12 16 -20 0 -8 5
-14 10 -14 6 0 10 -7 10 -15 0 -8 5 -15 10 -15 6 0 9 -3 8 -7 -1 -5 4 -19 11
-33 23 -42 -4 -9 -59 75 -93 140 -236 313 -255 307 -5 -2 -6 0 -2 4 9 10 -132
154 -151 154 -9 0 -12 6 -8 16 3 8 2 12 -3 9 -11 -6 -67 46 -63 58 1 5 -2 6
-7 3 -5 -3 -14 1 -21 9 -7 8 -16 15 -21 15 -5 0 -17 8 -27 18 -10 9 -28 23
-40 31 -11 8 -19 18 -16 23 3 5 2 7 -3 6 -14 -4 -53 13 -53 23 0 5 -7 9 -15 9
-8 0 -15 5 -15 10 0 6 -7 10 -15 10 -8 0 -15 4 -15 9 0 10 -30 24 -37 18 -2
-3 20 -20 49 -38 157 -100 392 -316 518 -474 152 -191 288 -430 371 -651 77
-206 129 -452 129 -609 -1 -101 -11 -86 -46 71 -62 280 -147 522 -260 744 -96
189 -283 468 -305 454 -5 -3 -9 4 -9 14 0 11 -15 33 -33 48 -17 16 -33 34 -35
39 -4 15 -134 145 -157 157 -11 6 12 -20 50 -58 39 -38 69 -72 68 -76 -2 -3
10 -17 25 -30 15 -14 32 -33 39 -44 6 -10 16 -18 23 -16 6 1 9 -2 5 -8 -7 -12
63 -106 77 -102 5 1 7 -2 4 -7 -4 -6 9 -34 27 -63 59 -91 137 -256 173 -363
32 -97 45 -181 25 -159 -5 5 -48 83 -96 174 -283 539 -638 898 -1132 1145
-130 65 -273 122 -411 165 -93 29 -103 30 -118 16 -18 -18 -11 -21 16 -6 13 7
21 7 25 0 4 -6 10 -8 15 -5 5 3 11 1 15 -5 4 -6 10 -8 15 -5 5 3 11 1 15 -4 3
-6 12 -8 20 -4 8 3 15 0 15 -7 0 -6 4 -9 9 -5 5 3 12 1 16 -5 4 -6 11 -8 16
-5 5 4 9 2 9 -4 0 -9 51 -25 66 -21 4 1 10 -3 13 -8 3 -6 15 -12 26 -14 11 -1
26 -9 33 -15 12 -12 34 -17 55 -14 4 0 7 -4 7 -10 0 -5 4 -8 9 -5 5 4 11 2 13
-2 6 -15 141 -81 152 -75 6 3 8 3 4 -2 -4 -4 32 -32 80 -62 95 -60 222 -154
244 -181 7 -9 -6 -2 -29 16 -24 19 -48 30 -54 26 -7 -4 -9 -3 -6 3 9 14 -19
37 -33 28 -6 -4 -9 -1 -8 6 2 6 -3 14 -11 17 -10 3 -11 0 -5 -9 7 -12 5 -12
-9 0 -9 7 -14 18 -11 23 3 5 -2 8 -12 6 -12 -2 -18 2 -16 10 1 7 -5 12 -15 10
-11 -2 -17 2 -15 10 1 7 -5 12 -15 10 -11 -2 -17 2 -15 11 2 8 -3 11 -12 8
-10 -4 -20 2 -27 14 -6 11 -16 18 -23 16 -7 -3 -21 4 -30 14 -9 11 -21 17 -26
14 -6 -3 -10 -1 -10 5 0 6 -5 8 -12 4 -6 -4 -8 -3 -4 4 6 10 -30 28 -46 24 -5
-1 -8 3 -8 9 0 5 -5 7 -10 4 -5 -3 -10 -1 -10 5 0 6 -5 8 -10 5 -6 -3 -10 -1
-10 4 0 6 -3 10 -7 9 -5 -1 -22 5 -39 15 -17 9 -34 13 -38 10 -3 -4 -6 -1 -6
5 0 7 -7 12 -15 12 -9 0 -27 7 -40 16 -14 9 -25 13 -25 9 0 -4 -7 -2 -15 5 -8
6 -23 9 -35 5 -11 -4 -20 -3 -19 2 3 19 -2 27 -9 16 -6 -10 -33 -5 -113 22
-124 42 -383 108 -491 125 -76 12 -96 24 -60 33 9 3 5 4 -10 4 -15 -1 -24 -5
-21 -11 4 -5 -13 -7 -42 -3 -26 4 -57 7 -67 7 -14 0 -18 5 -14 15 4 11 -2 15
-22 14 -24 0 -25 -1 -7 -10 15 -7 8 -8 -25 -5 -25 3 -109 11 -187 18 -87 7
-138 16 -130 21 7 5 1 6 -16 2 -19 -4 -26 -2 -22 5 3 5 -1 10 -10 10 -9 0 -13
-4 -10 -10 7 -12 -71 -13 -130 -1 -23 4 -74 5 -115 1 -60 -6 -65 -7 -27 -9
176 -5 560 -61 766 -111 960 -235 1575 -825 1687 -1620 21 -146 14 -390 -15
-532 -130 -643 -610 -1126 -1246 -1255 -137 -27 -444 -25 -581 5 -900 195
-1464 1055 -1565 2384 -5 79 -14 157 -18 173 -12 49 -13 1667 -1 1895 36 678
108 1091 275 1565 6 16 5 17 -4 5 -22 -31 -11 40 33 212 115 447 261 753 503
1053 105 131 322 340 453 439 126 94 151 118 55 51 -182 -126 -340 -260 -544
-459 -169 -166 -263 -278 -368 -438 -46 -71 -88 -128 -93 -128 -6 0 -11 26
-11 58 -2 49 -3 44 -10 -32 -11 -124 -21 -179 -94 -511 -129 -587 -173 -934
-198 -1570 -2 -38 -4 448 -4 1080 -2 1352 6 1584 56 1684 10 20 37 103 60 184
162 574 394 863 1016 1269 690 451 1459 821 2575 1238 237 88 512 188 1310
475 239 87 581 211 760 277 813 301 2687 1034 2485 972 -35 -10 -391 -145
-948 -358 -1058 -405 -1550 -586 -2622 -966 -1145 -406 -1590 -574 -2090 -790
-841 -363 -1585 -795 -1986 -1152 -83 -75 -202 -198 -282 -293 -37 -43 -42
-26 -13 44 91 224 357 546 646 783 404 330 966 676 1685 1038 462 232 892 428
1935 880 1127 488 1702 748 2795 1260 1129 529 1543 715 2035 912 1240 497
2166 665 2954 537 670 -109 1242 -446 1593 -937 164 -229 253 -480 253 -713 0
-172 -26 -239 -92 -239 l-33 0 33 -22 c42 -30 76 -98 67 -137 -8 -39 -34 -60
-86 -70 l-44 -9 48 -1 c101 -2 197 -88 197 -175 0 -24 -28 -59 -70 -88 -20
-14 -17 -14 20 2 119 52 314 -2 365 -100 21 -40 19 -64 -10 -122 l-25 -49 49
50 c89 91 222 141 377 142 103 1 156 -11 204 -43 63 -43 73 -68 80 -186 4 -59
8 -93 8 -75 6 118 77 278 175 393 155 182 399 332 612 377 89 19 157 10 234
-28 70 -35 120 -87 203 -214 33 -49 62 -92 64 -95 3 -2 -18 43 -46 101 -85
180 -113 338 -98 566 37 582 455 1383 872 1672 174 120 322 164 546 164 175 0
311 -22 619 -99 118 -30 216 -53 217 -51 2 2 -40 16 -94 32 -494 146 -810 325
-1083 613 -506 534 -900 1501 -1053 2582 -198 1406 37 2396 838 3517 420 589
1034 1278 2241 2513 121 124 -70 -63 -425 -415 -857 -851 -1214 -1191 -1625
-1551 -956 -836 -1807 -1341 -2955 -1754 -678 -244 -1374 -412 -2015 -487
-215 -25 -715 -25 -871 0 -472 74 -742 266 -933 662 -57 117 -87 192 -152 375
-26 74 -48 131 -48 126 -1 -4 12 -54 28 -110 150 -516 175 -797 95 -1074 -86
-297 -289 -597 -644 -952 -643 -643 -1633 -1276 -2325 -1485 -334 -101 -630
-100 -929 4 -77 27 -83 20 -9 -9 212 -85 356 -181 394 -265 65 -142 -27 -370
-274 -678 -93 -116 -363 -392 -512 -522 -240 -211 -606 -489 -870 -660 -559
-363 -990 -547 -1362 -583 -70 -6 -60 -8 99 -12 159 -5 179 -7 205 -26 82 -61
5 -204 -246 -454 -288 -287 -712 -622 -1286 -1016 -461 -317 -765 -492 -980
-563 -100 -34 -101 -36 -8 -20 79 14 113 7 113 -24 0 -63 -63 -130 -904 -952
-411 -402 -503 -487 -556 -516 l-35 -18 31 5 c19 4 34 1 39 -5 8 -15 -35 -108
-123 -264 -153 -269 -366 -735 -363 -794 0 -13 -15 -114 -33 -225 -55 -324
-68 -479 -75 -928 l-6 -405 -7 415 c-7 455 -18 581 -73 915 -19 116 -34 219
-34 230 3 57 -213 528 -363 792 -88 156 -131 249 -123 264 5 6 20 9 39 5 l31
-5 -35 18 c-53 29 -145 114 -556 516 -841 822 -904 889 -904 952 0 31 34 38
113 24 93 -16 92 -14 -8 20 -215 71 -519 246 -980 563 -574 394 -998 729
-1286 1016 -251 250 -328 393 -246 454 26 19 46 21 205 26 159 4 169 6 99 12
-187 18 -408 79 -627 175 -383 166 -883 482 -1331 841 -238 190 -346 287 -539
481 -358 360 -540 647 -540 845 1 79 24 128 87 188 49 45 199 127 326 178 74
29 68 36 -9 9 -223 -77 -467 -99 -689 -61 -509 87 -1262 479 -1974 1026 -580
446 -1005 915 -1172 1294 -152 345 -144 642 32 1248 16 56 29 106 28 110 0 5
-22 -52 -48 -126 -65 -183 -95 -258 -152 -375 -191 -396 -461 -588 -933 -662
-156 -25 -656 -25 -871 0 -641 75 -1337 243 -2015 487 -1148 413 -1999 918
-2955 1754 -411 360 -768 700 -1625 1551 -355 352 -546 539 -425 415z m19510
-15446 c8 -54 14 -110 14 -124 -1 -27 -37 170 -38 209 -2 51 10 11 24 -85z
m105 -39 c-15 -84 -18 -95 -14 -45 7 84 27 201 31 175 2 -11 -6 -69 -17 -130z
m-5670 -3677 c-16 -6 -104 -8 -245 -5 -121 2 -211 1 -200 -3 12 -5 -12 -8 -65
-8 -73 1 -78 2 -35 8 l50 6 -40 5 c-22 3 95 6 260 7 217 0 293 -2 275 -10z
m11765 3 l-40 -5 50 -6 c43 -6 38 -7 -35 -8 -53 0 -77 3 -65 8 11 4 -79 5
-200 3 -141 -3 -229 -1 -245 5 -18 8 58 10 275 10 165 -1 282 -4 260 -7z
m-12400 -9 l-30 -5 25 -7 c18 -6 10 -8 -30 -8 -38 -1 -49 2 -35 8 17 6 14 8
-15 12 -19 3 -1 5 40 5 41 0 62 -2 45 -5z m895 -2 c18 -6 7 -8 -40 -8 -36 0
-74 3 -85 8 -26 11 90 11 125 0z m10835 0 c-11 -5 -49 -8 -85 -8 -47 0 -58 2
-40 8 35 11 151 11 125 0z m855 2 c-29 -4 -32 -6 -15 -12 14 -6 3 -9 -35 -8
-40 0 -48 2 -30 8 l25 7 -30 5 c-16 3 4 5 45 5 41 0 59 -2 40 -5z m-12735 -11
c-3 -5 7 -12 22 -14 20 -3 15 -4 -15 -6 -25 0 -41 3 -37 8 3 5 -9 12 -27 14
-25 3 -22 4 15 5 28 1 46 -2 42 -7z m1220 -1 l30 -8 -30 0 c-16 -1 -48 3 -70
7 l-40 9 40 0 c22 0 54 -4 70 -8z m10430 -1 c-22 -4 -53 -8 -70 -7 l-30 0 30
8 c17 4 48 8 70 8 l40 0 -40 -9z m1207 4 c-18 -2 -30 -9 -27 -14 4 -5 -12 -8
-37 -8 -30 2 -35 3 -15 6 15 2 25 9 22 14 -4 5 14 8 42 7 37 -1 40 -2 15 -5z
m-12977 -13 c3 -5 21 -11 38 -11 26 -1 28 -3 8 -6 -13 -3 -33 0 -45 6 -12 5
-30 12 -41 14 -15 4 -13 5 7 6 15 0 30 -3 33 -9z m1490 1 c53 -11 5 -12 -55
-2 -34 6 -37 9 -15 9 17 1 48 -3 70 -7z m10115 -2 c-25 -4 -56 -7 -70 -7 -38
1 37 15 80 15 32 0 31 0 -10 -8z m1475 4 c-11 -2 -29 -9 -41 -14 -12 -6 -32
-9 -45 -6 -20 3 -18 5 8 6 17 0 35 6 38 11 3 6 18 9 33 9 20 -1 22 -2 7 -6z
m-11497 -10 c-10 -2 -26 -2 -35 0 -10 3 -2 5 17 5 19 0 27 -2 18 -5z m9910 0
c-10 -2 -26 -2 -35 0 -10 3 -2 5 17 5 19 0 27 -2 18 -5z m-11532 -21 c-10 -2
-22 0 -28 6 -6 6 0 7 19 4 21 -5 23 -7 9 -10z m1732 11 c-15 -2 -42 -2 -60 0
-18 2 -6 4 27 4 33 0 48 -2 33 -4z m9720 0 c-15 -2 -42 -2 -60 0 -18 2 -6 4
27 4 33 0 48 -2 33 -4z m1697 -3 c-3 -5 -16 -10 -28 -9 -20 1 -20 2 3 9 14 4
26 8 28 9 2 1 0 -3 -3 -9z m-13219 -18 c-10 -2 -22 0 -28 6 -6 6 0 7 19 4 21
-5 23 -7 9 -10z m1877 11 c-7 -2 -19 -2 -25 0 -7 3 -2 5 12 5 14 0 19 -2 13
-5z m50 0 c-7 -2 -19 -2 -25 0 -7 3 -2 5 12 5 14 0 19 -2 13 -5z m9430 0 c-7
-2 -19 -2 -25 0 -7 3 -2 5 12 5 14 0 19 -2 13 -5z m50 0 c-7 -2 -19 -2 -25 0
-7 3 -2 5 12 5 14 0 19 -2 13 -5z m1882 -3 c-3 -5 -16 -10 -28 -9 -20 1 -20 2
3 9 14 4 26 8 28 9 2 1 0 -3 -3 -9z m-11248 -6 c-3 -3 -12 -4 -19 -1 -8 3 -5
6 6 6 11 1 17 -2 13 -5z m9200 0 c-3 -3 -12 -4 -19 -1 -8 3 -5 6 6 6 11 1 17
-2 13 -5z m-9484 -81 c6 -9 -511 -8 -520 1 -4 3 111 6 255 6 143 0 263 -3 265
-7z m10264 1 c-9 -9 -526 -10 -520 -1 2 4 122 7 265 7 144 0 259 -3 255 -6z
m-10009 -11 c-21 -2 -55 -2 -75 0 -21 2 -4 4 37 4 41 0 58 -2 38 -4z m9310 0
c-21 -2 -55 -2 -75 0 -21 2 -4 4 37 4 41 0 58 -2 38 -4z m-9073 -13 c-7 -12
-52 -12 -80 0 -15 6 -6 9 33 9 33 1 51 -3 47 -9z m8840 0 c-28 -12 -73 -12
-80 0 -4 6 14 10 47 9 39 0 48 -3 33 -9z m-8645 -10 c19 -13 -46 -13 -75 0
-16 7 -11 9 20 9 22 0 47 -4 55 -9z m8445 0 c-29 -13 -94 -13 -75 0 8 5 33 9
55 9 31 0 36 -2 20 -9z m-8275 -10 c23 -7 22 -8 -10 -8 -19 0 -46 4 -60 8 -23
7 -22 8 10 8 19 0 46 -4 60 -8z m8100 0 c-14 -4 -41 -8 -60 -8 -32 0 -33 1
-10 8 14 4 41 8 60 8 32 0 33 -1 10 -8z m-7935 -10 l30 -8 -35 0 c-19 0 -48 4
-65 8 l-30 8 35 0 c19 0 49 -4 65 -8z m7770 0 c-16 -4 -46 -8 -65 -8 l-35 0
30 8 c17 4 46 8 65 8 l35 0 -30 -8z m-7620 -10 l30 -8 -30 0 c-16 0 -43 4 -60
8 l-30 8 30 0 c17 0 44 -4 60 -8z m7460 0 c-16 -4 -43 -8 -60 -8 l-30 0 30 8
c17 4 44 8 60 8 l30 0 -30 -8z m-7287 -17 c-10 -2 -26 -2 -35 0 -10 3 -2 5 17
5 19 0 27 -2 18 -5z m7090 0 c-10 -2 -26 -2 -35 0 -10 3 -2 5 17 5 19 0 27 -2
18 -5z m-6940 -10 c-10 -2 -26 -2 -35 0 -10 3 -2 5 17 5 19 0 27 -2 18 -5z
m6790 0 c-10 -2 -26 -2 -35 0 -10 3 -2 5 17 5 19 0 27 -2 18 -5z m-6635 -10
c-7 -2 -21 -2 -30 0 -10 3 -4 5 12 5 17 0 24 -2 18 -5z m6480 0 c-7 -2 -21 -2
-30 0 -10 3 -4 5 12 5 17 0 24 -2 18 -5z m-8983 -311 c0 -8 -53 -30 -91 -37
-35 -7 -12 9 39 26 26 9 48 17 50 18 1 0 2 -3 2 -7z m11556 -34 c3 -4 -3 -5
-15 -3 -35 7 -91 28 -91 36 0 7 95 -22 106 -33z m-11681 -7 c-6 -5 -35 -16
-65 -26 -30 -10 -59 -20 -65 -24 -5 -3 -15 -6 -22 -7 -7 -1 -26 -9 -43 -17
-24 -12 -30 -13 -30 -2 0 7 11 16 25 19 13 3 34 10 47 15 13 5 28 10 33 11 6
1 16 6 23 12 6 6 12 8 12 5 0 -3 17 0 38 8 45 16 60 18 47 6z m11744 -6 c22
-8 41 -12 41 -9 0 3 6 2 13 -3 6 -4 14 -8 17 -9 3 0 18 -6 33 -12 15 -7 39
-15 52 -18 14 -3 25 -12 25 -19 0 -11 -6 -10 -30 2 -17 8 -36 16 -43 17 -7 1
-16 4 -22 7 -5 4 -35 14 -65 24 -30 10 -59 21 -64 26 -14 12 -5 11 43 -6z
m-11995 -89 c-11 -6 -21 -11 -24 -12 -36 -7 -60 -18 -60 -26 0 -6 -7 -5 -15 2
-13 11 -14 10 -9 -6 4 -10 4 -16 0 -12 -10 9 -66 -11 -66 -24 0 -6 -6 -6 -15
2 -11 9 -12 15 -2 25 7 7 15 11 20 8 4 -2 7 1 7 7 0 8 6 8 20 0 15 -8 18 -8
15 3 -4 8 3 13 16 14 12 1 25 7 29 14 5 8 9 8 14 0 5 -7 14 -4 28 9 12 11 25
17 29 14 4 -2 11 1 15 8 6 9 9 9 12 -1 3 -8 -4 -19 -14 -25z m12218 19 c4 0
16 -8 27 -17 13 -11 23 -14 27 -7 4 8 9 8 14 0 4 -7 17 -13 29 -14 13 -1 20
-6 16 -14 -3 -11 0 -11 15 -3 14 8 20 8 20 0 0 -6 3 -9 8 -7 4 3 12 -1 19 -8
10 -10 9 -16 -2 -25 -9 -8 -15 -8 -15 -2 0 13 -56 33 -66 24 -4 -4 -4 2 0 12
5 16 4 17 -9 6 -8 -7 -15 -8 -15 -2 0 5 -12 13 -27 18 -58 16 -73 24 -73 41 0
9 5 11 13 6 6 -4 15 -8 19 -8z m-12412 -106 c0 -6 -4 -7 -10 -4 -5 3 -10 1
-10 -4 0 -6 -3 -10 -7 -9 -15 4 -53 -13 -53 -23 0 -6 -4 -7 -10 -4 -5 3 -10 1
-10 -6 0 -7 -3 -9 -7 -6 -9 9 -155 -70 -288 -158 -214 -139 -411 -312 -582
-509 -117 -134 -121 -139 -99 -101 37 60 103 141 188 231 48 50 85 94 82 97
-3 3 0 8 7 13 8 5 10 3 4 -7 -5 -8 19 10 53 39 34 30 62 58 62 63 0 5 3 8 8 7
10 -3 112 74 112 85 0 11 -72 -39 -191 -134 -55 -44 -97 -83 -95 -88 3 -5 -4
-17 -17 -27 l-22 -19 20 24 c42 50 -8 12 -116 -89 -146 -136 -125 -98 28 50
179 175 405 337 644 464 54 29 96 56 92 61 -5 4 -3 5 4 1 13 -7 103 33 103 47
0 4 4 6 9 2 12 -7 61 15 61 27 0 5 9 4 20 -2 11 -6 20 -15 20 -21z m12658 2
c12 -7 27 -9 32 -6 6 3 10 2 10 -2 0 -14 90 -54 103 -47 7 4 9 3 4 -1 -4 -5
38 -32 92 -61 239 -127 465 -289 644 -464 153 -148 174 -186 28 -50 -108 101
-158 139 -116 89 l20 -24 -22 19 c-13 10 -20 22 -17 27 2 5 -40 44 -95 88
-119 95 -191 145 -191 134 0 -11 102 -88 113 -85 4 1 7 -2 7 -7 0 -5 28 -33
62 -63 34 -29 58 -46 53 -38 -4 8 -5 12 -1 8 4 -3 7 -9 6 -13 -1 -3 38 -48 87
-99 86 -90 152 -171 189 -231 22 -38 18 -33 -99 101 -171 197 -368 370 -582
509 -133 88 -279 167 -288 158 -4 -3 -7 -1 -7 6 0 7 -4 9 -10 6 -5 -3 -10 -2
-10 4 0 10 -38 27 -52 23 -5 -1 -8 3 -8 9 0 5 -4 7 -10 4 -5 -3 -10 -2 -10 4
0 13 33 32 40 22 3 -5 15 -13 28 -20z m-12198 -146 c0 -2 -10 -9 -22 -15 -22
-11 -22 -10 -4 4 21 17 26 19 26 11z m11710 -21 c0 -2 -9 0 -20 6 -11 6 -20
13 -20 16 0 2 9 0 20 -6 11 -6 20 -13 20 -16z m-12055 -214 c-3 -5 -11 -10
-16 -10 -6 0 -7 5 -4 10 3 6 11 10 16 10 6 0 7 -4 4 -10z m12380 0 c3 -5 2
-10 -4 -10 -5 0 -13 5 -16 10 -3 6 -2 10 4 10 5 0 13 -4 16 -10z m-12430 -40
c-3 -5 -11 -10 -16 -10 -6 0 -7 5 -4 10 3 6 11 10 16 10 6 0 7 -4 4 -10z
m12480 0 c3 -5 2 -10 -4 -10 -5 0 -13 5 -16 10 -3 6 -2 10 4 10 5 0 13 -4 16
-10z m-10891 -15 c-4 -8 -10 -15 -14 -15 -4 0 -38 -29 -75 -65 -38 -36 -70
-63 -73 -60 -6 5 37 65 47 65 4 0 18 10 31 23 24 22 82 67 87 67 1 0 0 -7 -3
-15z m9351 -39 c22 -20 43 -36 47 -36 9 0 51 -60 46 -65 -3 -3 -35 24 -73 60
-37 36 -71 65 -75 65 -4 0 -10 7 -14 15 -8 21 18 7 69 -39z m-11034 -29 c-13
-12 -20 -15 -16 -7 14 26 28 41 33 35 3 -3 -5 -16 -17 -28z m12660 0 c12 -22
12 -22 -10 -3 -11 11 -21 23 -21 28 0 14 19 -1 31 -25z m-6344 -144 c-2 -21
-4 -6 -4 32 0 39 2 55 4 38 2 -18 2 -50 0 -70z m20 0 c-2 -21 -4 -6 -4 32 0
39 2 55 4 38 2 -18 2 -50 0 -70z m-4841 55 c-9 -13 -20 -32 -25 -44 -5 -11
-35 -44 -68 -74 -32 -29 -49 -47 -38 -40 11 7 7 0 -10 -16 -16 -15 -29 -31
-27 -36 1 -4 -3 -7 -10 -5 -7 1 -13 -2 -13 -8 -4 -28 -18 -43 -37 -40 -16 4
-18 2 -8 -10 10 -11 10 -15 1 -15 -7 0 -9 -5 -6 -10 4 -6 1 -9 -7 -8 -8 2 -12
-4 -10 -16 2 -10 -1 -15 -7 -12 -5 3 -19 -7 -31 -24 -12 -16 -18 -30 -13 -30
4 0 0 -5 -10 -11 -9 -6 -14 -16 -11 -22 4 -7 4 -9 -1 -5 -11 11 -38 -29 -29
-44 5 -7 3 -8 -6 -3 -10 6 -12 4 -7 -8 3 -9 1 -19 -5 -23 -7 -5 -8 -2 -3 6 6
9 4 11 -4 6 -7 -5 -10 -14 -7 -22 3 -8 0 -13 -6 -11 -6 1 -13 -4 -16 -12 -3
-9 0 -11 8 -6 9 5 11 4 6 -4 -4 -6 -12 -8 -18 -5 -8 5 -9 1 -5 -10 4 -10 3
-15 -3 -11 -12 7 -33 -32 -24 -47 4 -7 3 -8 -4 -4 -7 4 -33 -37 -72 -113 -202
-405 -309 -811 -350 -1331 -16 -209 -21 -248 -30 -225 -16 43 -21 207 -10 350
13 176 38 327 80 495 17 67 27 126 24 132 -5 7 -2 8 6 3 10 -6 12 -3 7 14 -3
13 -3 20 1 16 4 -3 17 24 29 61 16 48 20 71 12 78 -7 8 -8 5 -3 -9 4 -11 3
-16 -1 -12 -21 19 -147 -365 -236 -722 -37 -150 -71 -276 -74 -279 -17 -17
-17 24 -2 141 50 393 239 905 481 1300 36 60 66 111 66 113 0 3 -6 2 -12 -2
-8 -4 -10 -3 -5 2 5 5 14 9 20 9 5 0 12 6 15 14 3 9 0 11 -9 6 -8 -5 -11 -4
-6 1 5 5 14 9 20 9 7 0 11 8 11 18 -1 9 2 14 7 12 11 -7 30 30 21 40 -4 5 -2
5 5 1 14 -8 36 27 25 39 -4 5 -2 5 5 1 12 -7 37 27 27 37 -3 3 0 8 7 13 8 5
10 3 5 -7 -4 -8 1 -3 12 11 11 13 18 29 15 34 -4 5 -1 6 7 1 10 -6 12 -4 7 9
-4 9 -3 15 2 12 4 -3 17 4 27 16 13 15 14 19 4 14 -11 -6 -11 -4 1 6 9 7 17
16 17 21 1 4 5 7 10 8 14 1 32 21 27 30 -3 5 3 14 15 21 11 7 20 18 20 24 0
15 35 46 43 38 4 -4 10 2 13 12 7 18 169 184 181 184 3 0 -2 -10 -11 -22z
m9750 -73 c39 -38 74 -79 78 -89 3 -10 9 -16 13 -12 8 8 43 -23 43 -38 0 -6 9
-17 20 -24 12 -7 18 -17 15 -22 -5 -8 12 -25 28 -25 4 0 8 -4 9 -10 0 -5 8
-16 17 -23 12 -10 12 -12 1 -6 -10 5 -9 1 4 -14 10 -12 23 -19 27 -16 5 3 6
-3 2 -12 -5 -13 -3 -15 7 -9 8 5 11 4 7 -1 -3 -5 4 -21 15 -34 11 -14 16 -18
12 -10 -4 8 -4 12 0 8 4 -3 7 -8 5 -10 -7 -9 24 -48 34 -42 7 4 9 4 5 -1 -11
-12 11 -47 25 -39 7 4 9 4 5 -1 -9 -10 10 -47 21 -40 5 2 8 -3 7 -12 0 -10 4
-18 11 -18 6 0 15 -4 20 -9 5 -5 2 -6 -6 -1 -9 5 -12 3 -9 -6 3 -8 10 -14 16
-14 5 0 14 -4 19 -9 5 -5 3 -6 -4 -2 -7 4 -13 5 -13 2 0 -2 30 -53 66 -113
132 -215 279 -535 361 -783 88 -267 166 -707 118 -658 -3 3 -37 129 -74 279
-89 357 -215 741 -236 722 -4 -4 -5 1 -1 12 5 14 4 17 -3 9 -8 -7 -4 -30 12
-78 12 -37 25 -64 29 -61 4 4 4 -3 1 -16 -5 -17 -3 -20 7 -14 8 5 11 4 6 -3
-3 -6 7 -65 24 -132 42 -168 67 -319 80 -495 11 -143 6 -307 -10 -350 -9 -23
-14 16 -30 225 -41 520 -148 926 -350 1331 -39 76 -65 117 -72 113 -7 -4 -8
-3 -4 4 9 15 -12 54 -24 47 -6 -4 -7 1 -3 11 4 11 3 15 -5 10 -6 -3 -14 -1
-18 5 -5 8 -3 9 6 4 8 -5 11 -3 8 6 -3 8 -10 13 -16 12 -6 -2 -9 3 -6 11 3 8
0 17 -7 22 -8 5 -10 3 -4 -6 5 -8 4 -11 -3 -6 -6 4 -8 14 -5 23 5 12 3 14 -7
8 -9 -5 -11 -4 -6 3 9 15 -18 55 -29 44 -5 -4 -5 -2 -1 5 3 6 -2 16 -11 22
-10 6 -14 11 -10 11 5 0 -1 14 -13 30 -12 17 -26 27 -31 24 -6 -3 -9 2 -7 12
2 12 -2 18 -10 16 -8 -1 -11 2 -7 8 3 5 1 10 -6 10 -9 0 -9 4 1 15 10 12 8 14
-8 10 -19 -3 -33 12 -37 40 0 6 -6 9 -13 8 -7 -2 -11 1 -9 5 1 5 -11 21 -28
36 -16 16 -21 23 -10 16 11 -7 -6 11 -38 40 -33 30 -63 63 -68 74 -5 12 -17
32 -26 46 -17 25 -17 25 2 10 11 -8 52 -46 91 -85z m-8776 41 c0 -2 -8 -10
-17 -17 -16 -13 -17 -12 -4 4 13 16 21 21 21 13z m7731 -13 c13 -16 12 -17 -3
-4 -17 13 -22 21 -14 21 2 0 10 -8 17 -17z m-11172 -53 c-31 -38 -39 -46 -39
-35 0 6 61 75 67 75 2 0 -11 -18 -28 -40z m14622 -22 c16 -30 4 -20 -31 25
-29 37 -30 39 -6 17 15 -14 32 -33 37 -42z m-11259 -22 c-20 -30 -38 -53 -40
-51 -5 5 62 105 70 105 4 0 -9 -24 -30 -54z m7876 3 c45 -69 36 -71 -10 -3
-21 30 -34 54 -30 54 4 0 22 -23 40 -51z m-11316 -51 c-7 -7 -12 -8 -12 -2 0
14 12 26 19 19 2 -3 -1 -11 -7 -17z m14758 1 c0 -6 -4 -7 -10 -4 -5 3 -10 11
-10 16 0 6 5 7 10 4 6 -3 10 -11 10 -16z m-7393 -844 c-3 -440 -10 -879 -16
-975 -32 -510 -83 -812 -167 -988 -40 -82 -76 -115 -100 -90 -23 22 -28 119
-14 239 6 57 45 302 85 544 100 596 164 1125 181 1483 3 64 8 143 11 175 4 39
2 57 -6 57 -6 0 -11 13 -11 29 0 45 12 91 21 85 5 -3 8 14 8 38 -1 40 -2 41
-9 13 -7 -28 -8 -27 -9 13 0 23 3 42 7 42 5 0 6 27 4 60 -2 32 -1 76 4 97 8
38 8 38 12 8 2 -16 2 -390 -1 -830z m31 738 c-2 -40 0 -73 4 -73 5 0 7 -19 7
-42 -1 -40 -2 -41 -9 -13 -7 28 -8 27 -9 -13 0 -24 3 -41 8 -38 9 6 21 -40 21
-85 0 -16 -5 -29 -11 -29 -8 0 -10 -18 -6 -57 3 -32 8 -111 11 -175 17 -358
81 -887 181 -1483 40 -242 79 -487 85 -544 30 -254 -28 -329 -114 -149 -84
176 -134 477 -167 988 -15 244 -23 1843 -8 1810 6 -14 9 -58 7 -97z m-4037 25
c-17 -29 -31 -50 -31 -45 0 13 52 108 57 103 3 -3 -9 -29 -26 -58z m8033 12
c14 -27 26 -53 26 -57 0 -10 -60 89 -60 100 0 16 9 4 34 -43z m-11429 20 c-3
-5 -11 -10 -16 -10 -6 0 -7 5 -4 10 3 6 11 10 16 10 6 0 7 -4 4 -10z m14840 0
c3 -5 2 -10 -4 -10 -5 0 -13 5 -16 10 -3 6 -2 10 4 10 5 0 13 -4 16 -10z
m-14880 -50 c-3 -5 -11 -10 -16 -10 -6 0 -7 5 -4 10 3 6 11 10 16 10 6 0 7 -4
4 -10z m14920 0 c3 -5 2 -10 -4 -10 -5 0 -13 5 -16 10 -3 6 -2 10 4 10 5 0 13
-4 16 -10z m-14945 -34 c0 -2 -7 -7 -16 -10 -8 -3 -12 -2 -9 4 6 10 25 14 25
6z m3250 -27 c-13 -23 -17 -24 -17 -4 0 8 4 15 9 15 5 0 6 5 2 12 -4 7 -3 8 4
4 9 -5 9 -13 2 -27z m173 6 c-5 -13 -23 -22 -23 -11 0 15 14 35 21 31 4 -3 6
-12 2 -20z m8122 -13 c-8 -9 -25 20 -18 31 3 5 10 2 15 -7 6 -10 7 -20 3 -24z
m160 28 c-3 -5 -2 -10 3 -10 5 0 9 -7 9 -16 0 -15 -2 -14 -13 1 -12 16 -11 35
2 35 3 0 2 -4 -1 -10z m3270 0 c3 -6 -1 -7 -9 -4 -18 7 -21 14 -7 14 6 0 13
-4 16 -10z m-15000 -30 c-3 -5 -11 -10 -16 -10 -6 0 -7 5 -4 10 3 6 11 10 16
10 6 0 7 -4 4 -10z m15020 0 c3 -5 2 -10 -4 -10 -5 0 -13 5 -16 10 -3 6 -2 10
4 10 5 0 13 -4 16 -10z m-11785 -61 c-22 -42 -25 -45 -36 -27 -4 6 -3 8 4 4
10 -6 28 30 24 47 -1 4 3 7 9 7 5 0 7 5 3 12 -4 7 -3 8 4 4 9 -5 6 -18 -8 -47z
m8525 41 c-3 -5 -1 -10 4 -10 6 0 10 -3 9 -7 -4 -16 14 -53 23 -48 5 4 9 4 9
1 0 -3 -4 -7 -10 -11 -11 -7 -52 69 -43 79 10 9 15 7 8 -4z m-11785 -14 c0 -2
-7 -7 -16 -10 -8 -3 -12 -2 -9 4 6 10 25 14 25 6z m15075 -6 c3 -6 -1 -7 -9
-4 -18 7 -21 14 -7 14 6 0 13 -4 16 -10z m-15095 -24 c0 -2 -7 -7 -16 -10 -8
-3 -12 -2 -9 4 6 10 25 14 25 6z m15115 -6 c3 -6 -1 -7 -9 -4 -18 7 -21 14 -7
14 6 0 13 -4 16 -10z m-15143 -29 c-8 -4 -13 -12 -12 -17 1 -5 -4 -10 -12 -12
-9 -2 -8 0 2 7 8 6 11 11 7 11 -5 0 -5 5 -2 10 3 6 12 10 18 10 8 0 8 -3 -1
-9z m15158 -5 c-1 -5 4 -13 12 -18 11 -8 11 -9 0 -6 -8 2 -13 7 -12 12 1 5 -4
13 -12 18 -11 8 -11 9 0 6 8 -2 13 -7 12 -12z m-11721 -58 c-12 -29 -26 -65
-31 -80 -6 -16 -14 -28 -20 -28 -6 0 -8 6 -5 13 37 94 62 147 69 147 4 0 -2
-24 -13 -52z m8295 -15 c16 -38 30 -74 33 -80 3 -7 1 -13 -5 -13 -6 0 -14 12
-20 28 -5 15 -19 51 -31 80 -11 28 -17 52 -13 52 5 0 21 -30 36 -67z m-11782
0 c-6 -2 -9 -10 -6 -15 4 -7 2 -8 -5 -4 -13 9 -5 26 12 25 9 0 8 -2 -1 -6z
m15263 -2 c3 -5 0 -13 -6 -17 -7 -4 -9 -3 -5 4 3 5 0 13 -6 15 -9 4 -10 6 -1
6 6 1 14 -3 18 -8z m-15287 -51 c-7 -10 -16 -16 -22 -13 -5 3 -2 11 7 18 9 7
13 16 9 20 -4 5 -1 5 5 1 10 -5 10 -11 1 -26z m15298 21 c-3 -5 1 -12 10 -15
8 -3 12 -11 9 -17 -5 -6 -12 -4 -20 8 -12 16 -11 33 1 33 3 0 3 -4 0 -9z
m-7695 -121 c-9 -22 -10 -20 -10 21 -1 25 2 49 7 53 11 12 14 -47 3 -74z m98
22 c0 -35 -3 -42 -9 -27 -12 28 -12 88 0 80 6 -3 10 -27 9 -53z m-5348 5 c-10
-9 -11 -8 -5 6 3 10 9 15 12 12 3 -3 0 -11 -7 -18z m1104 6 c-3 -10 -14 -44
-22 -76 -9 -32 -20 -54 -25 -49 -9 9 32 142 45 142 5 0 6 -8 2 -17z m8413 -50
c12 -37 18 -71 14 -75 -5 -5 -16 17 -25 49 -8 32 -19 66 -22 76 -4 9 -3 17 2
17 5 0 19 -30 31 -67z m1076 51 c3 -8 2 -12 -4 -9 -6 3 -10 10 -10 16 0 14 7
11 14 -7z m-12999 -24 c3 -5 1 -10 -4 -10 -6 0 -11 5 -11 10 0 6 2 10 4 10 3
0 8 -4 11 -10z m15415 0 c0 -5 -5 -10 -11 -10 -5 0 -7 5 -4 10 3 6 8 10 11 10
2 0 4 -4 4 -10z m-13030 -28 c0 -5 -7 -17 -15 -28 -14 -18 -14 -17 -4 9 12 27
19 34 19 19z m10649 -22 c11 -24 11 -24 -3 -6 -9 11 -16 24 -16 30 0 12 5 7
19 -24z m-13052 4 c-3 -3 -12 -4 -19 -1 -8 3 -5 6 6 6 11 1 17 -2 13 -5z
m7673 -45 c0 -24 -4 -38 -10 -34 -5 3 -10 24 -10 46 0 24 4 38 10 34 6 -3 10
-24 10 -46z m101 -32 c-8 -8 -11 1 -11 29 0 53 14 67 18 19 2 -21 -1 -42 -7
-48z m7686 77 c-3 -3 -12 -4 -19 -1 -8 3 -5 6 6 6 11 1 17 -2 13 -5z m-15490
-60 c-3 -3 -12 -4 -19 -1 -8 3 -5 6 6 6 11 1 17 -2 13 -5z m15520 0 c-3 -3
-12 -4 -19 -1 -8 3 -5 6 6 6 11 1 17 -2 13 -5z m-12019 -72 c-7 -34 -14 -48
-20 -40 -11 19 -10 40 2 33 7 -4 9 2 4 19 -4 16 -2 26 5 26 6 0 8 8 4 18 -4
12 -3 14 6 6 9 -8 9 -23 -1 -62z m8498 53 c-3 -8 -1 -15 5 -15 7 0 9 -10 5
-26 -5 -17 -3 -23 4 -19 12 7 13 -14 2 -33 -6 -8 -13 6 -20 39 -11 47 -9 69 5
69 3 0 3 -7 -1 -15z m-9736 1 c0 -3 -4 -8 -10 -11 -5 -3 -10 -1 -10 4 0 6 5
11 10 11 6 0 10 -2 10 -4z m10990 -6 c0 -5 -2 -10 -4 -10 -3 0 -8 5 -11 10 -3
6 -1 10 4 10 6 0 11 -4 11 -10z m-5559 -65 c-2 -16 -7 -35 -11 -40 -5 -6 -5
-16 -1 -23 10 -16 2 -74 -9 -67 -5 3 -5 -7 -1 -22 5 -16 4 -39 0 -52 -5 -13
-9 -35 -9 -50 -1 -44 -7 -95 -14 -112 -4 -8 -8 -43 -9 -76 -1 -34 -4 -59 -7
-57 -2 3 -14 -53 -27 -123 -41 -227 -163 -686 -178 -671 -3 2 16 76 41 164 25
87 46 175 47 195 1 21 5 35 8 33 10 -6 20 60 13 82 -5 16 -4 17 6 4 9 -12 11
-8 6 20 -5 27 -3 31 5 20 8 -11 9 -7 5 18 -4 23 -2 31 6 26 7 -5 9 0 6 14 -4
12 -2 25 4 28 5 3 7 17 4 29 -3 13 -2 25 4 27 5 2 11 21 14 43 2 22 6 47 9 55
13 36 16 79 5 82 -7 3 -2 54 16 158 14 85 31 201 38 258 9 79 14 99 22 85 5
-10 9 -31 7 -48z m175 -290 c17 -107 23 -160 15 -163 -10 -3 -7 -46 6 -82 3
-8 7 -33 9 -55 3 -22 9 -41 14 -43 6 -2 7 -14 4 -27 -3 -12 -1 -26 4 -29 6 -3
8 -16 4 -28 -3 -14 -1 -19 6 -14 8 5 10 -3 6 -26 -4 -25 -3 -29 5 -18 8 11 10
7 5 -20 -5 -28 -3 -32 6 -20 10 13 11 12 6 -4 -7 -22 3 -88 13 -82 3 2 7 -12
8 -33 1 -20 22 -108 47 -195 25 -88 44 -162 41 -164 -15 -15 -137 444 -178
671 -13 70 -25 126 -27 123 -3 -2 -6 23 -7 57 -1 33 -5 68 -9 76 -7 17 -13 68
-14 112 0 15 -4 37 -9 50 -4 13 -5 36 0 52 4 15 4 25 -1 22 -11 -7 -19 51 -9
67 4 7 4 17 -1 23 -12 14 -14 66 -4 90 6 15 12 -7 21 -80 7 -55 24 -172 39
-260z m-7909 289 c-3 -3 -12 -4 -19 -1 -8 3 -5 6 6 6 11 1 17 -2 13 -5z
m15600 0 c-3 -3 -12 -4 -19 -1 -8 3 -5 6 6 6 11 1 17 -2 13 -5z m-15610 -20
c-3 -3 -12 -4 -19 -1 -8 3 -5 6 6 6 11 1 17 -2 13 -5z m15620 0 c-3 -3 -12 -4
-19 -1 -8 3 -5 6 6 6 11 1 17 -2 13 -5z m-13367 -8 c0 -3 -4 -8 -10 -11 -5 -3
-10 -1 -10 4 0 6 5 11 10 11 6 0 10 -2 10 -4z m1268 -93 c-10 -54 -14 -62 -19
-43 -11 39 -10 62 1 55 7 -4 9 3 5 22 -5 22 -4 25 5 13 9 -12 10 -8 5 20 -5
27 -4 31 5 18 8 -13 7 -36 -2 -85z m8557 65 c-5 -26 -4 -30 5 -18 9 12 10 9 5
-13 -4 -19 -2 -26 5 -22 11 7 12 -16 1 -55 -5 -19 -9 -11 -19 42 -7 36 -9 73
-6 82 10 27 16 18 9 -16z m1285 22 c0 -5 -2 -10 -4 -10 -3 0 -8 5 -11 10 -3 6
-1 10 4 10 6 0 11 -4 11 -10z m-9861 -195 c0 -22 -2 -26 -9 -15 -6 10 -8 -6
-5 -45 2 -33 2 -51 -2 -40 l-6 20 -8 -20 c-6 -15 -8 -10 -8 20 -1 30 2 36 9
25 7 -10 8 -2 4 29 -5 31 -4 42 4 37 7 -4 9 6 7 31 -4 31 -3 34 4 13 5 -14 9
-38 10 -55z m8608 40 c-4 -24 -2 -33 5 -29 8 5 9 -6 4 -37 -4 -31 -3 -39 4
-29 7 11 10 5 9 -25 0 -30 -2 -35 -8 -20 l-8 20 -6 -20 c-4 -11 -4 7 -2 40 3
39 1 55 -5 45 -8 -12 -10 -11 -10 6 0 29 11 84 18 84 2 0 2 -16 -1 -35z
m-8636 -180 c4 12 7 -14 7 -65 -1 -77 -2 -80 -7 -30 -5 41 -8 49 -12 30 -4
-15 -6 -3 -6 30 -1 30 2 46 5 35 l5 -20 8 20z m8660 0 c5 13 7 2 7 -35 0 -33
-3 -45 -7 -30 -4 19 -7 11 -12 -30 -5 -49 -6 -46 -6 30 0 47 2 76 5 65 l5 -20
8 20z m-4484 -117 c-3 -8 -6 -5 -6 6 -1 11 2 17 5 13 3 -3 4 -12 1 -19z m300
0 c-3 -8 -6 -5 -6 6 -1 11 2 17 5 13 3 -3 4 -12 1 -19z m-4500 -205 c-1 -43
-3 -10 -3 72 0 83 2 118 3 78 2 -40 2 -107 0 -150z m8700 0 c-1 -43 -3 -10 -3
72 0 83 2 118 3 78 2 -40 2 -107 0 -150z m-10034 107 c-3 -12 -8 -19 -11 -16
-5 6 5 36 12 36 2 0 2 -9 -1 -20z m11375 -11 c-3 -8 -7 -3 -11 10 -4 17 -3 21
5 13 5 -5 8 -16 6 -23z m-11395 -54 c-3 -9 -8 -14 -10 -11 -3 3 -2 9 2 15 9
16 15 13 8 -4z m1383 -79 c-3 -34 -10 -81 -15 -106 l-10 -45 5 50 c2 28 7 84
11 125 4 41 8 66 11 56 2 -11 2 -47 -2 -80z m8658 -96 l5 -55 -10 45 c-6 25
-12 81 -14 125 l-3 80 8 -70 c5 -38 11 -95 14 -125z m1374 165 c-3 -3 -9 2
-12 12 -6 14 -5 15 5 6 7 -7 10 -15 7 -18z m-11425 -30 c-3 -9 -8 -14 -10 -11
-3 3 -2 9 2 15 9 16 15 13 8 -4z m11435 -10 c-3 -3 -9 2 -12 12 -6 14 -5 15 5
6 7 -7 10 -15 7 -18z m-11445 -30 c-3 -9 -8 -14 -10 -11 -3 3 -2 9 2 15 9 16
15 13 8 -4z m11455 -10 c-3 -3 -9 2 -12 12 -6 14 -5 15 5 6 7 -7 10 -15 7 -18z
m-11466 -37 c-7 -7 -12 -8 -12 -2 0 14 12 26 19 19 2 -3 -1 -11 -7 -17z
m11478 1 c0 -6 -4 -7 -10 -4 -5 3 -10 11 -10 16 0 6 5 7 10 4 6 -3 10 -11 10
-16z m-13773 -11 c-3 -8 -6 -5 -6 6 -1 11 2 17 5 13 3 -3 4 -12 1 -19z m16060
0 c-3 -8 -6 -5 -6 6 -1 11 2 17 5 13 3 -3 4 -12 1 -19z m-13776 -41 c-8 -8
-11 -7 -11 4 0 20 13 34 18 19 3 -7 -1 -17 -7 -23z m11499 7 c0 -8 -4 -12 -10
-9 -5 3 -10 13 -10 21 0 8 5 12 10 9 6 -3 10 -13 10 -21z m-10063 -21 c-3 -10
-5 -4 -5 12 0 17 2 24 5 18 2 -7 2 -21 0 -30z m8620 0 c-3 -10 -5 -4 -5 12 0
17 2 24 5 18 2 -7 2 -21 0 -30z m-10063 -40 c-3 -21 -11 -42 -16 -48 -9 -10
-1 60 9 78 10 17 13 4 7 -30z m11521 -18 c4 -26 3 -36 -3 -30 -5 6 -13 28 -17
50 -4 26 -3 36 3 30 5 -5 13 -28 17 -50z m-10094 -27 c-3 -21 -6 -26 -9 -15
-3 17 3 47 11 47 2 0 1 -15 -2 -32z m8657 -9 c-3 -20 -5 -19 -9 9 -3 20 -2 29
4 23 5 -5 7 -19 5 -32z m-8981 -46 c-3 -10 -5 -4 -5 12 0 17 2 24 5 18 2 -7 2
-21 0 -30z m340 15 c-3 -8 -6 -5 -6 6 -1 11 2 17 5 13 3 -3 4 -12 1 -19z
m8620 0 c-3 -8 -6 -5 -6 6 -1 11 2 17 5 13 3 -3 4 -12 1 -19z m340 -15 c-3
-10 -5 -4 -5 12 0 17 2 24 5 18 2 -7 2 -21 0 -30z m-10417 15 c0 -7 -5 -20
-10 -28 -8 -12 -10 -9 -10 13 0 15 5 27 10 27 6 0 10 -6 10 -12z m11550 -15
c0 -22 -2 -25 -10 -13 -13 20 -13 40 0 40 6 0 10 -12 10 -27z m-10103 -25 c-3
-8 -6 -5 -6 6 -1 11 2 17 5 13 3 -3 4 -12 1 -19z m8640 0 c-3 -8 -6 -5 -6 6
-1 11 2 17 5 13 3 -3 4 -12 1 -19z m-8620 -20 c-3 -8 -6 -5 -6 6 -1 11 2 17 5
13 3 -3 4 -12 1 -19z m8600 0 c-3 -8 -6 -5 -6 6 -1 11 2 17 5 13 3 -3 4 -12 1
-19z m-10077 -8 c0 -11 -4 -20 -10 -20 -5 0 -10 9 -10 20 0 11 5 20 10 20 6 0
10 -9 10 -20z m5502 -12 c-8 -8 -9 -4 -5 13 4 13 8 18 11 10 2 -7 -1 -18 -6
-23z m551 12 c3 -11 1 -18 -4 -14 -5 3 -9 12 -9 20 0 20 7 17 13 -6z m5517 0
c0 -11 -4 -20 -10 -20 -5 0 -10 9 -10 20 0 11 5 20 10 20 6 0 10 -9 10 -20z
m-10103 -32 c-3 -8 -6 -5 -6 6 -1 11 2 17 5 13 3 -3 4 -12 1 -19z m8620 0 c-3
-8 -6 -5 -6 6 -1 11 2 17 5 13 3 -3 4 -12 1 -19z m-10099 -32 c1 -19 -2 -37
-7 -40 -5 -4 -7 -22 -4 -41 3 -19 2 -42 -2 -52 -4 -10 -7 -54 -7 -98 1 -58 -1
-74 -8 -60 -7 14 -8 -2 -5 -55 2 -41 7 -140 10 -220 11 -261 47 -520 105 -759
17 -68 29 -126 27 -128 -6 -5 -44 143 -71 272 -12 61 -25 103 -28 95 -3 -8 -3
4 -1 28 3 24 2 42 -4 42 -6 0 -8 11 -5 25 2 13 1 33 -3 42 -4 10 -7 34 -6 54
1 21 -2 39 -7 42 -4 4 -9 -16 -11 -44 -1 -27 2 -49 6 -49 5 0 7 -18 5 -40 -2
-22 0 -40 4 -40 5 0 10 -26 11 -58 1 -31 13 -117 28 -191 14 -73 24 -135 22
-137 -7 -7 -45 187 -67 333 -23 158 -43 474 -38 593 3 73 4 66 7 -45 1 -71 7
-139 12 -150 6 -13 8 12 4 75 -15 296 -16 375 -6 360 8 -11 9 2 4 48 -4 43 -2
62 5 62 8 0 10 14 6 44 -4 25 -2 46 4 50 6 3 8 15 5 26 -5 18 1 50 10 50 1 0
4 -15 5 -34z m11591 -4 c-1 -15 2 -35 6 -45 4 -9 4 -33 1 -52 -5 -24 -3 -35 5
-35 9 0 10 -17 6 -62 -5 -46 -4 -59 4 -48 10 15 9 -64 -6 -360 -4 -63 -2 -88
4 -75 5 11 11 79 12 150 3 111 4 118 7 45 5 -119 -15 -435 -38 -593 -22 -146
-60 -340 -67 -333 -2 2 8 64 22 137 15 74 27 160 28 191 1 32 6 58 11 58 4 0
6 18 4 40 -2 22 0 40 5 40 4 0 7 22 6 49 -2 28 -7 48 -11 44 -5 -3 -8 -21 -7
-42 1 -20 -2 -44 -6 -54 -4 -9 -5 -29 -3 -42 3 -14 1 -25 -5 -25 -6 0 -7 -18
-4 -42 2 -24 2 -36 -1 -28 -3 8 -16 -34 -28 -95 -27 -129 -65 -277 -71 -272
-2 2 10 60 27 128 58 239 94 498 105 759 3 80 8 179 10 220 3 53 2 69 -5 55
-7 -14 -9 2 -8 60 0 44 -3 88 -7 98 -4 10 -5 33 -2 52 3 19 1 37 -4 41 -5 3
-9 21 -7 39 1 19 6 31 11 28 4 -3 7 -17 6 -31z m-5812 -44 c-3 -7 -5 -2 -5 12
0 14 2 19 5 13 2 -7 2 -19 0 -25z m20 0 c-3 -7 -5 -2 -5 12 0 14 2 19 5 13 2
-7 2 -19 0 -25z m-334 -58 c-3 -11 -10 -23 -16 -27 -5 -3 -8 -2 -5 3 3 5 8 17
11 27 9 24 16 22 10 -3z m660 -10 c3 -11 2 -18 -3 -15 -4 3 -10 14 -13 25 -3
11 -2 18 3 15 4 -3 10 -14 13 -25z m-709 -125 c-4 -8 -10 -15 -15 -15 -4 0 -6
7 -3 15 4 8 10 15 15 15 4 0 6 -7 3 -15z m760 0 c3 -8 1 -15 -3 -15 -5 0 -11
7 -15 15 -3 8 -1 15 3 15 5 0 11 -7 15 -15z m-397 -572 c-3 -296 -11 -605 -17
-688 -12 -185 -29 -331 -40 -359 -14 -34 -12 58 10 414 23 388 42 864 39 975
-3 118 0 195 8 195 3 0 3 -242 0 -537z m24 385 c-1 -189 15 -615 39 -1018 22
-356 24 -448 10 -414 -11 28 -28 174 -40 359 -13 180 -26 1233 -15 1223 4 -4
6 -71 6 -150z m-8104 100 c-3 -7 -5 -2 -5 12 0 14 2 19 5 13 2 -7 2 -19 0 -25z
m16180 0 c-3 -7 -5 -2 -5 12 0 14 2 19 5 13 2 -7 2 -19 0 -25z m-8517 -37 c-5
-11 -15 -23 -22 -27 -7 -5 -8 -2 -3 7 21 37 44 55 25 20z m871 -13 c8 -15 8
-18 0 -14 -6 4 -16 16 -22 28 -8 15 -8 18 0 14 6 -4 16 -16 22 -28z m-4607 -4
c3 -8 2 -12 -4 -9 -6 3 -10 10 -10 16 0 14 7 11 14 -7z m8327 -7 c-10 -9 -11
-8 -5 6 3 10 9 15 12 12 3 -3 0 -11 -7 -18z m-8291 -82 c0 -5 -5 -3 -10 5 -5
8 -10 20 -10 25 0 6 5 3 10 -5 5 -8 10 -19 10 -25z m8261 8 c-12 -20 -14 -14
-5 12 4 9 9 14 11 11 3 -2 0 -13 -6 -23z m-12224 -155 c-3 -8 -6 -5 -6 6 -1
11 2 17 5 13 3 -3 4 -12 1 -19z m16180 0 c-3 -8 -6 -5 -6 6 -1 11 2 17 5 13 3
-3 4 -12 1 -19z m-12127 -33 c0 -5 -5 -3 -10 5 -5 8 -10 20 -10 25 0 6 5 3 10
-5 5 -8 10 -19 10 -25z m8081 8 c-12 -20 -14 -14 -5 12 4 9 9 14 11 11 3 -2 0
-13 -6 -23z m-7927 -239 c3 -8 2 -12 -4 -9 -6 3 -10 10 -10 16 0 14 7 11 14
-7z m7767 -7 c-10 -9 -11 -8 -5 6 3 10 9 15 12 12 3 -3 0 -11 -7 -18z m-7733
-42 c-3 -3 -9 2 -12 12 -6 14 -5 15 5 6 7 -7 10 -15 7 -18z m7705 10 c-3 -9
-8 -14 -10 -11 -3 3 -2 9 2 15 9 16 15 13 8 -4z m-7659 -61 c3 -8 2 -12 -4 -9
-6 3 -10 10 -10 16 0 14 7 11 14 -7z m7607 -7 c-10 -9 -11 -8 -5 6 3 10 9 15
12 12 3 -3 0 -11 -7 -18z m-7427 -186 c-6 -6 -112 98 -126 124 -6 11 22 -11
61 -49 39 -39 68 -72 65 -75z m7376 133 c0 -11 -123 -134 -134 -134 -6 0 21
32 59 70 70 71 75 75 75 64z m-7295 -194 c3 -5 2 -10 -4 -10 -5 0 -13 5 -16
10 -3 6 -2 10 4 10 5 0 13 -4 16 -10z m7100 0 c-3 -5 -11 -10 -16 -10 -6 0 -7
5 -4 10 3 6 11 10 16 10 6 0 7 -4 4 -10z m-7050 -40 c3 -5 1 -10 -4 -10 -6 0
-11 5 -11 10 0 6 2 10 4 10 3 0 8 -4 11 -10z m6995 0 c0 -5 -5 -10 -11 -10 -5
0 -7 5 -4 10 3 6 8 10 11 10 2 0 4 -4 4 -10z m-9233 -72 c-3 -8 -6 -5 -6 6 -1
11 2 17 5 13 3 -3 4 -12 1 -19z m11460 0 c-3 -8 -6 -5 -6 6 -1 11 2 17 5 13 3
-3 4 -12 1 -19z m-9132 2 c3 -6 -1 -7 -9 -4 -18 7 -21 14 -7 14 6 0 13 -4 16
-10z m6825 6 c0 -2 -7 -7 -16 -10 -8 -3 -12 -2 -9 4 6 10 25 14 25 6z m-6729
-73 c13 -17 13 -17 -6 -3 -11 8 -22 16 -24 17 -2 2 0 3 6 3 6 0 17 -8 24 -17z
m6638 14 c-2 -1 -13 -9 -24 -17 -19 -14 -19 -14 -6 3 7 9 18 17 24 17 6 0 8
-1 6 -3z m-9062 -49 c-3 -8 -6 -5 -6 6 -1 11 2 17 5 13 3 -3 4 -12 1 -19z
m2474 5 c13 -16 12 -17 -3 -4 -17 13 -22 21 -14 21 2 0 10 -8 17 -17z m6529
13 c0 -2 -8 -10 -17 -17 -16 -13 -17 -12 -4 4 13 16 21 21 21 13z m2457 -18
c-3 -8 -6 -5 -6 6 -1 11 2 17 5 13 3 -3 4 -12 1 -19z m-11430 -20 c-3 -8 -6
-5 -6 6 -1 11 2 17 5 13 3 -3 4 -12 1 -19z m11400 0 c-3 -8 -6 -5 -6 6 -1 11
2 17 5 13 3 -3 4 -12 1 -19z m-11420 -20 c-3 -8 -6 -5 -6 6 -1 11 2 17 5 13 3
-3 4 -12 1 -19z m62 -28 c0 -9 -4 -8 -9 5 -5 11 -9 27 -9 35 0 9 4 8 9 -5 5
-11 9 -27 9 -35z m11325 16 c-3 -15 -8 -25 -11 -23 -2 3 -1 17 3 31 3 15 8 25
11 23 2 -3 1 -17 -3 -31z m53 12 c-3 -8 -6 -5 -6 6 -1 11 2 17 5 13 3 -3 4
-12 1 -19z m-8837 -29 c0 -5 -11 -3 -25 3 -14 6 -25 15 -25 19 0 5 11 3 25 -3
14 -6 25 -15 25 -19z m6280 23 c0 -5 -11 -14 -25 -20 -31 -14 -33 1 -2 16 28
14 27 13 27 4z m-4580 -12 c-8 -5 -19 -10 -25 -10 -5 0 -3 5 5 10 8 5 20 10
25 10 6 0 3 -5 -5 -10z m2850 0 c8 -5 11 -10 5 -10 -5 0 -17 5 -25 10 -8 5
-10 10 -5 10 6 0 17 -5 25 -10z m-7143 -22 c-3 -8 -6 -5 -6 6 -1 11 2 17 5 13
3 -3 4 -12 1 -19z m11420 0 c-3 -8 -6 -5 -6 6 -1 11 2 17 5 13 3 -3 4 -12 1
-19z m-8583 -84 c26 -9 45 -18 43 -20 -2 -2 -28 5 -58 15 -30 11 -49 20 -43
20 6 1 32 -6 58 -15z m5757 -5 c-30 -10 -56 -17 -58 -15 -5 5 77 34 97 34 8 1
-9 -8 -39 -19z m-4555 2 c-6 -9 -46 -22 -46 -15 0 3 10 9 23 14 29 11 29 11
23 1z m3379 -11 c3 -5 -4 -6 -15 -3 -11 3 -22 9 -25 13 -3 5 4 6 15 3 11 -3
22 -9 25 -13z m-7333 -70 c10 -30 14 -50 10 -45 -11 12 -42 104 -41 119 1 12
4 4 31 -74z m11263 18 c-10 -29 -21 -57 -26 -62 -4 -5 1 21 13 57 12 37 24 65
26 62 2 -2 -4 -28 -13 -57z m-7570 -8 c-3 -5 -12 -10 -18 -10 -7 0 -6 4 3 10
19 12 23 12 15 0z m3880 -8 c-3 -3 -11 0 -18 7 -9 10 -8 11 6 5 10 -3 15 -9
12 -12z m-4480 -10 c-3 -3 -11 0 -18 7 -9 10 -8 11 6 5 10 -3 15 -9 12 -12z
m540 8 c-3 -5 -12 -10 -18 -10 -7 0 -6 4 3 10 19 12 23 12 15 0z m4000 -8 c-3
-3 -11 0 -18 7 -9 10 -8 11 6 5 10 -3 15 -9 12 -12z m540 8 c-3 -5 -12 -10
-18 -10 -7 0 -6 4 3 10 19 12 23 12 15 0z m-5005 -10 c8 -5 11 -10 5 -10 -5 0
-17 5 -25 10 -8 5 -10 10 -5 10 6 0 17 -5 25 -10z m390 0 c-8 -5 -19 -10 -25
-10 -5 0 -3 5 5 10 8 5 20 10 25 10 6 0 3 -5 -5 -10z m4150 0 c8 -5 11 -10 5
-10 -5 0 -17 5 -25 10 -8 5 -10 10 -5 10 6 0 17 -5 25 -10z m390 0 c-8 -5 -19
-10 -25 -10 -5 0 -3 5 5 10 8 5 20 10 25 10 6 0 3 -5 -5 -10z m-4692 -13 c-34
-6 -78 -5 -105 0 -41 7 -33 9 57 9 98 -1 101 -1 48 -9z m4539 0 c-27 -5 -71
-6 -105 0 -53 8 -50 8 48 9 90 0 98 -2 57 -9z m-7874 -169 c9 -21 14 -38 11
-38 -5 0 -34 64 -34 76 0 12 7 0 23 -38z m11113 -2 c-21 -49 -28 -46 -9 4 9
22 18 38 20 36 2 -2 -3 -20 -11 -40z m-5576 -646 c-7 -168 -15 -325 -20 -350
-6 -32 -7 -18 -4 50 12 248 24 601 26 755 l2 170 4 -160 c2 -88 -2 -297 -8
-465z m40 70 c5 -173 12 -349 15 -390 4 -68 3 -70 -5 -25 -13 73 -30 539 -28
770 1 113 3 148 5 80 1 -66 7 -262 13 -435z m-5540 490 c6 -11 8 -20 6 -20 -3
0 -10 9 -16 20 -6 11 -8 20 -6 20 3 0 10 -9 16 -20z m11040 0 c-6 -11 -13 -20
-16 -20 -2 0 0 9 6 20 6 11 13 20 16 20 2 0 0 -9 -6 -20z m-10995 -100 c9 -16
13 -30 11 -30 -3 0 -12 14 -21 30 -9 17 -13 30 -11 30 3 0 12 -13 21 -30z
m10950 0 c-9 -16 -18 -30 -21 -30 -2 0 2 14 11 30 9 17 18 30 21 30 2 0 -2
-13 -11 -30z m-10865 -175 c0 -5 -5 -3 -10 5 -5 8 -10 20 -10 25 0 6 5 3 10
-5 5 -8 10 -19 10 -25z m10781 8 c-12 -20 -14 -14 -5 12 4 9 9 14 11 11 3 -2
0 -13 -6 -23z m-10747 -58 c3 -8 1 -15 -3 -15 -5 0 -11 7 -15 15 -3 8 -1 15 3
15 5 0 11 -7 15 -15z m10720 0 c-4 -8 -10 -15 -15 -15 -4 0 -6 7 -3 15 4 8 10
15 15 15 4 0 6 -7 3 -15z m-10680 -70 c3 -8 1 -15 -3 -15 -5 0 -11 7 -15 15
-3 8 -1 15 3 15 5 0 11 -7 15 -15z m10640 0 c-4 -8 -10 -15 -15 -15 -4 0 -6 7
-3 15 4 8 10 15 15 15 4 0 6 -7 3 -15z m-10610 -50 c3 -8 1 -15 -3 -15 -5 0
-11 7 -15 15 -3 8 -1 15 3 15 5 0 11 -7 15 -15z m10580 0 c-4 -8 -10 -15 -15
-15 -4 0 -6 7 -3 15 4 8 10 15 15 15 4 0 6 -7 3 -15z m-10539 -65 c3 -5 2 -10
-4 -10 -5 0 -13 5 -16 10 -3 6 -2 10 4 10 5 0 13 -4 16 -10z m10500 0 c-3 -5
-11 -10 -16 -10 -6 0 -7 5 -4 10 3 6 11 10 16 10 6 0 7 -4 4 -10z m-10411
-135 c9 -14 12 -25 6 -25 -6 0 -14 8 -17 18 -4 9 -11 20 -17 24 -8 5 -8 8 0 8
7 0 19 -11 28 -25z m10330 17 c-6 -4 -13 -15 -17 -24 -3 -10 -11 -18 -17 -18
-6 0 -3 11 6 25 9 14 21 25 28 25 8 0 8 -3 0 -8z m-10284 -78 c0 -2 -9 0 -20
6 -11 6 -20 13 -20 16 0 2 9 0 20 -6 11 -6 20 -13 20 -16z m10250 21 c0 -2
-10 -9 -22 -15 -22 -11 -22 -10 -4 4 21 17 26 19 26 11z m-10235 -45 c3 -5 2
-10 -4 -10 -5 0 -13 5 -16 10 -3 6 -2 10 4 10 5 0 13 -4 16 -10z m10200 0 c-3
-5 -11 -10 -16 -10 -6 0 -7 5 -4 10 3 6 11 10 16 10 6 0 7 -4 4 -10z m-10170
-40 c3 -5 2 -10 -4 -10 -5 0 -13 5 -16 10 -3 6 -2 10 4 10 5 0 13 -4 16 -10z
m10140 0 c-3 -5 -11 -10 -16 -10 -6 0 -7 5 -4 10 3 6 11 10 16 10 6 0 7 -4 4
-10z m-10095 -61 c0 -6 10 -20 23 -30 l22 -20 -23 11 c-13 6 -26 19 -29 28 -4
9 -14 23 -22 30 -14 11 -13 11 7 2 12 -6 22 -15 22 -21z m10059 18 c-8 -7 -18
-20 -22 -29 -3 -9 -16 -22 -29 -28 l-23 -11 23 20 c12 10 22 24 22 30 0 5 8
15 18 20 23 14 30 13 11 -2z m-9966 -135 c-1 -5 16 -24 37 -41 22 -18 40 -36
40 -42 0 -5 53 -62 118 -125 l117 -116 -127 118 c-70 66 -128 124 -128 130 0
7 -16 24 -35 38 -19 15 -34 31 -32 36 1 5 -11 21 -28 36 l-30 26 35 -25 c19
-14 34 -30 33 -35z m9882 32 c-16 -13 -29 -29 -28 -34 2 -5 -13 -21 -32 -36
-19 -14 -35 -31 -35 -38 0 -6 -58 -64 -128 -130 l-127 -118 118 116 c64 63
117 120 117 125 0 6 18 24 40 42 22 18 37 35 35 40 -3 4 9 19 27 33 42 33 53
33 13 0z m-9523 -399 c2 3 17 -8 32 -23 18 -20 22 -29 12 -29 -9 0 -32 19 -53
41 -21 22 -29 33 -17 23 11 -9 23 -15 26 -12z m9135 -13 c-21 -21 -44 -39 -53
-39 -10 0 -6 9 12 28 15 16 30 26 34 24 4 -3 13 2 20 10 7 8 15 15 18 15 3 0
-11 -17 -31 -38z m-4586 -442 c-14 -325 -33 -472 -73 -573 -20 -52 -19 -19 6
104 38 190 63 483 68 804 l2 140 4 -115 c2 -63 -2 -225 -7 -360z m39 45 c14
-254 25 -360 56 -514 14 -68 23 -125 21 -128 -13 -13 -52 140 -66 263 -16 130
-31 484 -29 659 2 135 3 138 5 35 1 -63 7 -205 13 -315z m-4475 315 c13 -15
13 -17 0 -17 -8 0 -22 8 -30 17 -13 15 -13 17 0 17 8 0 22 -8 30 -17z m8930 0
c-8 -9 -22 -17 -30 -17 -13 0 -13 2 0 17 8 9 22 17 30 17 13 0 13 -2 0 -17z
m-8861 -72 c-3 -5 -14 -2 -25 8 -10 9 -16 21 -13 26 3 5 14 2 25 -8 10 -9 16
-21 13 -26z m8790 11 c-9 -10 -21 -16 -26 -13 -5 3 -2 14 8 25 9 10 21 16 26
13 5 -3 2 -14 -8 -25z m-8743 -36 c7 -7 7 -13 1 -17 -5 -3 -17 3 -27 13 -15
17 -15 19 -1 17 9 -1 21 -7 27 -13z m8693 -4 c-9 -10 -21 -16 -26 -13 -12 8 8
31 27 31 13 0 13 -3 -1 -18z m-8648 -45 c2 -14 0 -14 -17 1 -10 10 -16 22 -13
27 8 12 27 -6 30 -28z m8608 27 c3 -4 -3 -16 -13 -26 -20 -17 -24 -4 -8 23 10
14 14 15 21 3z m-8568 -57 c2 -12 -1 -13 -12 -3 -7 6 -11 16 -8 21 7 11 17 3
20 -18z m8518 17 c3 -5 -1 -14 -8 -20 -12 -10 -14 -9 -11 6 2 10 4 19 4 21 2
5 10 2 15 -7z m-8478 -47 c2 -12 -1 -13 -12 -3 -7 6 -11 16 -8 21 7 11 17 3
20 -18z m8438 17 c3 -5 -1 -14 -8 -20 -12 -10 -14 -9 -11 6 2 10 4 19 4 21 2
5 10 2 15 -7z m-8398 -47 c2 -12 -1 -13 -12 -3 -7 6 -11 16 -8 21 7 11 17 3
20 -18z m8358 17 c3 -5 -1 -14 -8 -20 -12 -10 -14 -9 -11 6 2 10 4 19 4 21 2
5 10 2 15 -7z m-8328 -37 c1 -9 0 -13 -4 -10 -3 4 -7 14 -8 22 -1 9 0 13 4 10
3 -4 7 -14 8 -22z m8290 11 c-1 -8 -5 -17 -8 -21 -5 -4 -4 16 1 34 3 9 9 -1 7
-13z m-8250 -41 c2 -12 -1 -13 -12 -3 -7 6 -11 16 -8 21 7 11 17 3 20 -18z
m8218 17 c3 -5 -1 -14 -8 -20 -12 -10 -14 -9 -11 6 2 10 4 19 4 21 2 5 10 2
15 -7z m-8188 -36 c1 -8 -2 -13 -7 -9 -5 3 -9 12 -9 21 0 19 13 9 16 -12z
m8146 -7 c-7 -7 -10 -5 -7 8 5 29 6 30 12 16 3 -8 1 -18 -5 -24z m-8116 -14
c1 -9 0 -13 -4 -10 -3 4 -7 14 -8 22 -1 9 0 13 4 10 3 -4 7 -14 8 -22z m8090
11 c-1 -8 -5 -17 -8 -21 -5 -4 -4 16 1 34 3 9 9 -1 7 -13z m-8060 -31 c1 -9 0
-13 -4 -10 -3 4 -7 14 -8 22 -1 9 0 13 4 10 3 -4 7 -14 8 -22z m8030 11 c-1
-8 -5 -17 -8 -21 -5 -4 -4 16 1 34 3 9 9 -1 7 -13z m-8000 -31 c1 -9 0 -13 -4
-10 -3 4 -7 14 -8 22 -1 9 0 13 4 10 3 -4 7 -14 8 -22z m7970 11 c-1 -8 -5
-17 -8 -21 -5 -4 -4 16 1 34 3 9 9 -1 7 -13z m-7940 -31 c1 -9 0 -13 -4 -10
-3 4 -7 14 -8 22 -1 9 0 13 4 10 3 -4 7 -14 8 -22z m7910 11 c-1 -8 -5 -17 -8
-21 -5 -4 -4 16 1 34 3 9 9 -1 7 -13z m-7858 -46 c-3 -8 -7 -3 -11 10 -4 17
-3 21 5 13 5 -5 8 -16 6 -23z m7805 11 c-3 -12 -8 -19 -11 -16 -5 6 5 36 12
36 2 0 2 -9 -1 -20z m-7777 -26 c1 -9 0 -13 -4 -10 -3 4 -7 14 -8 22 -1 9 0
13 4 10 3 -4 7 -14 8 -22z m7750 11 c-1 -8 -5 -17 -8 -21 -5 -4 -4 16 1 34 3
9 9 -1 7 -13z m-7700 -40 c2 -12 -2 -12 -17 -5 -23 13 -25 22 -2 13 12 -5 14
-3 8 8 -5 8 -4 11 0 6 5 -4 10 -14 11 -22z m7648 13 c-5 -8 -2 -9 9 -5 23 9
21 0 -2 -13 -16 -8 -19 -7 -16 8 5 23 4 22 11 22 3 0 2 -5 -2 -12z m-7613 -38
c6 0 7 5 3 11 -4 8 0 8 15 0 25 -14 28 -23 4 -14 -11 5 -14 3 -8 -6 6 -10 3
-11 -14 -2 -11 7 -20 19 -20 29 1 16 2 16 6 0 2 -10 9 -18 14 -18z m7589 15
c0 -8 -10 -19 -21 -26 -17 -9 -20 -8 -14 2 6 9 3 11 -8 6 -24 -9 -21 0 4 14
15 8 19 8 15 0 -4 -6 -2 -11 3 -11 6 0 11 7 11 15 0 8 2 15 5 15 3 0 5 -7 5
-15z m-7520 -61 c0 -2 -9 0 -20 6 -11 6 -20 13 -20 16 0 2 9 0 20 -6 11 -6 20
-13 20 -16z m40 0 c0 -2 -9 0 -20 6 -11 6 -20 13 -20 16 0 2 9 0 20 -6 11 -6
20 -13 20 -16z m7390 21 c0 -2 -10 -9 -22 -15 -22 -11 -22 -10 -4 4 21 17 26
19 26 11z m40 0 c0 -2 -10 -9 -22 -15 -22 -11 -22 -10 -4 4 21 17 26 19 26 11z
m-7407 -45 c4 -17 2 -18 -14 -9 -10 5 -19 12 -19 15 0 3 5 2 10 -1 6 -3 10 -1
10 4 0 18 7 12 13 -9z m7328 6 c5 3 9 3 9 0 0 -3 -9 -10 -19 -15 -17 -9 -18
-8 -13 11 3 13 7 17 10 10 2 -7 8 -10 13 -6z m-7221 -64 c0 -13 2 -14 9 -4 6
11 10 9 14 -7 l5 -20 -39 20 c-21 10 -39 24 -39 31 0 6 -8 17 -17 25 -10 8 1
5 25 -7 25 -12 42 -27 42 -38z m7158 44 c-10 -7 -18 -18 -18 -24 0 -7 -18 -21
-39 -31 l-39 -20 5 20 c4 16 8 18 14 7 7 -10 9 -9 9 4 0 10 16 26 38 37 43 23
54 26 30 7z m-6960 -125 c30 -15 32 -19 18 -31 -14 -11 -16 -10 -9 6 6 17 5
17 -10 5 -15 -12 -17 -12 -12 1 4 9 -3 19 -17 26 -13 6 -18 11 -13 11 6 0 25
-8 43 -18z m6724 7 c-14 -7 -21 -17 -17 -26 5 -13 3 -13 -12 -1 -15 12 -16 12
-10 -5 7 -16 5 -17 -9 -6 -14 12 -12 16 18 31 18 10 38 18 43 18 6 0 0 -5 -13
-11z m-6658 -51 c-3 -8 7 -19 22 -26 29 -13 48 -6 24 9 -8 6 -10 10 -5 10 6 0
16 -4 23 -9 10 -6 10 -10 -1 -20 -21 -17 -92 16 -76 36 14 17 20 17 13 0z
m6551 -29 c-29 -15 -39 -17 -51 -7 -12 10 -12 14 -2 20 7 5 18 9 23 9 6 0 3
-4 -5 -10 -24 -15 -5 -22 24 -9 17 8 25 18 21 27 -5 13 -3 13 11 2 14 -12 11
-16 -21 -32z m-6415 -19 c12 -9 12 -10 -4 -5 -10 4 -26 1 -35 -6 -14 -12 -14
-11 -2 5 16 20 21 21 41 6z m6331 -6 c12 -16 12 -17 -2 -5 -9 7 -25 10 -35 6
-16 -5 -16 -4 -4 5 20 15 25 14 41 -6z m-6313 -19 c-13 -13 -20 -14 -34 -5
-17 11 -17 11 3 6 12 -3 24 -1 28 5 3 5 9 10 13 10 3 0 -1 -7 -10 -16z m6288
2 c18 5 18 5 0 -6 -15 -10 -21 -9 -35 6 -14 16 -14 17 0 6 9 -7 25 -10 35 -6z
m-6236 -7 c12 -9 12 -10 -4 -5 -10 4 -26 1 -35 -6 -14 -12 -14 -11 -2 5 16 20
21 21 41 6z m6191 -6 c12 -16 12 -17 -2 -5 -9 7 -25 10 -35 6 -16 -5 -16 -4
-4 5 20 15 25 14 41 -6z m-6146 -9 c14 -6 13 -8 -4 -21 -18 -12 -24 -12 -48 1
-16 8 -24 15 -20 16 5 0 17 -5 28 -10 23 -13 49 -2 28 11 -16 10 -8 12 16 3z
m6076 -3 c-21 -13 5 -24 28 -11 11 5 23 10 28 10 4 -1 -4 -8 -20 -16 -24 -13
-30 -13 -48 0 -15 10 -17 15 -7 19 21 9 34 7 19 -2z m-6026 -17 c14 -6 14 -8
-4 -20 -11 -8 -27 -11 -35 -8 -15 6 -15 8 1 20 22 16 18 15 38 8z m5998 -8
c16 -12 16 -14 1 -20 -8 -3 -25 0 -36 8 -14 10 -16 15 -6 19 19 8 21 8 41 -7z
m-5953 -10 c0 -2 -7 -7 -16 -10 -8 -3 -12 -2 -9 4 6 10 25 14 25 6z m5895 -6
c3 -6 -1 -7 -9 -4 -18 7 -21 14 -7 14 6 0 13 -4 16 -10z m-5855 -10 c8 -5 11
-10 5 -10 -5 0 -17 5 -25 10 -8 5 -10 10 -5 10 6 0 17 -5 25 -10z m5810 0 c-8
-5 -19 -10 -25 -10 -5 0 -3 5 5 10 8 5 20 10 25 10 6 0 3 -5 -5 -10z m-5855
-10 c-3 -5 -12 -10 -18 -10 -7 0 -6 4 3 10 19 12 23 12 15 0z m5900 -8 c-3 -3
-11 0 -18 7 -9 10 -8 11 6 5 10 -3 15 -9 12 -12z m-5815 4 c0 -2 -7 -7 -16
-10 -8 -3 -12 -2 -9 4 6 10 25 14 25 6z m5735 -6 c3 -6 -1 -7 -9 -4 -18 7 -21
14 -7 14 6 0 13 -4 16 -10z m-5695 -10 c8 -5 11 -10 5 -10 -5 0 -17 5 -25 10
-8 5 -10 10 -5 10 6 0 17 -5 25 -10z m5650 0 c-8 -5 -19 -10 -25 -10 -5 0 -3
5 5 10 8 5 20 10 25 10 6 0 3 -5 -5 -10z m-5690 -20 c8 -5 11 -10 5 -10 -5 0
-17 5 -25 10 -8 5 -10 10 -5 10 6 0 17 -5 25 -10z m80 6 c0 -2 -7 -7 -16 -10
-8 -3 -12 -2 -9 4 6 10 25 14 25 6z m2761 -247 c-18 -183 -34 -196 -253 -213
-82 -6 -148 -8 -148 -4 0 5 -44 8 -97 7 -65 -1 -89 -4 -73 -9 19 -6 12 -8 -30
-8 -45 0 -50 2 -25 8 29 7 29 8 5 11 -14 1 79 6 205 9 253 8 292 15 341 64 44
44 64 117 72 266 7 118 7 120 10 45 2 -44 -1 -123 -7 -176z m54 -46 c20 -67
63 -115 120 -133 24 -8 135 -16 270 -20 127 -3 219 -8 205 -9 -24 -3 -24 -4 5
-11 25 -6 20 -8 -25 -8 -42 0 -49 2 -30 8 16 5 -8 8 -72 9 -54 1 -98 -2 -98
-7 0 -4 -67 -2 -149 4 -184 14 -208 24 -234 103 -13 38 -19 95 -22 209 l-4
157 9 -122 c5 -68 16 -148 25 -180z m2760 287 c3 -6 -1 -7 -9 -4 -18 7 -21 14
-7 14 6 0 13 -4 16 -10z m75 0 c-8 -5 -19 -10 -25 -10 -5 0 -3 5 5 10 8 5 20
10 25 10 6 0 3 -5 -5 -10z m-5680 -20 c8 -5 11 -10 5 -10 -5 0 -17 5 -25 10
-8 5 -10 10 -5 10 6 0 17 -5 25 -10z m5630 0 c-8 -5 -19 -10 -25 -10 -5 0 -3
5 5 10 8 5 20 10 25 10 6 0 3 -5 -5 -10z m-4475 -300 c3 -6 -1 -7 -9 -4 -18 7
-21 14 -7 14 6 0 13 -4 16 -10z m3325 6 c0 -2 -7 -7 -16 -10 -8 -3 -12 -2 -9
4 6 10 25 14 25 6z m-3265 -24 c-3 -3 -11 0 -18 7 -9 10 -8 11 6 5 10 -3 15
-9 12 -12z m3200 8 c-3 -5 -12 -10 -18 -10 -7 0 -6 4 3 10 19 12 23 12 15 0z
m-3150 -10 c3 -6 -1 -7 -9 -4 -18 7 -21 14 -7 14 6 0 13 -4 16 -10z m3105 6
c0 -2 -7 -7 -16 -10 -8 -3 -12 -2 -9 4 6 10 25 14 25 6z m-3045 -24 c-3 -3
-11 0 -18 7 -9 10 -8 11 6 5 10 -3 15 -9 12 -12z m2980 8 c-3 -5 -12 -10 -18
-10 -7 0 -6 4 3 10 19 12 23 12 15 0z m-2920 -10 c3 -5 2 -10 -4 -10 -5 0 -13
5 -16 10 -3 6 -2 10 4 10 5 0 13 -4 16 -10z m2860 0 c-3 -5 -11 -10 -16 -10
-6 0 -7 5 -4 10 3 6 11 10 16 10 6 0 7 -4 4 -10z m-2800 -10 c3 -5 2 -10 -4
-10 -5 0 -13 5 -16 10 -3 6 -2 10 4 10 5 0 13 -4 16 -10z m2740 0 c-3 -5 -11
-10 -16 -10 -6 0 -7 5 -4 10 3 6 11 10 16 10 6 0 7 -4 4 -10z m-2670 -10 c3
-5 -1 -10 -9 -10 -9 0 -16 5 -16 10 0 6 4 10 9 10 6 0 13 -4 16 -10z m2605 0
c0 -5 -7 -10 -16 -10 -8 0 -12 5 -9 10 3 6 10 10 16 10 5 0 9 -4 9 -10z
m-2540 -10 c0 -5 -4 -10 -10 -10 -5 0 -10 5 -10 10 0 6 5 10 10 10 6 0 10 -4
10 -10z m2470 0 c0 -5 -4 -10 -10 -10 -5 0 -10 5 -10 10 0 6 5 10 10 10 6 0
10 -4 10 -10z m-2390 -10 c0 -5 -7 -10 -15 -10 -8 0 -15 5 -15 10 0 6 7 10 15
10 8 0 15 -4 15 -10z m2320 0 c0 -5 -7 -10 -15 -10 -8 0 -15 5 -15 10 0 6 7
10 15 10 8 0 15 -4 15 -10z m-2240 -10 c-20 -13 -43 -13 -35 0 3 6 16 10 28
10 18 0 19 -2 7 -10z m2165 0 c8 -13 -15 -13 -35 0 -12 8 -11 10 7 10 12 0 25
-4 28 -10z m-2070 -10 c-11 -5 -29 -9 -40 -9 -17 -1 -17 1 -5 9 8 5 26 9 40 9
23 0 23 -1 5 -9z m1985 0 c12 -8 12 -10 -5 -9 -11 0 -29 4 -40 9 -18 8 -18 9
5 9 14 0 32 -4 40 -9z m-1885 -10 c-16 -4 -41 -8 -55 -8 l-25 0 25 8 c14 4 39
8 55 8 l30 0 -30 -8z m1795 0 l25 -8 -25 0 c-14 0 -38 4 -55 8 l-30 8 30 0
c17 0 41 -4 55 -8z m-1639 -9 c-11 -7 -9 -10 10 -14 13 -2 4 -5 -21 -5 -35 0
-41 1 -25 9 14 6 0 8 -45 5 -47 -3 -55 -2 -30 3 50 12 128 13 111 2z m699 -16
c-7 -8 -16 -15 -21 -15 -5 0 -1 8 9 18 20 22 31 19 12 -3z m54 -14 c-5 -6 -34
20 -34 30 0 5 8 1 18 -8 10 -10 17 -20 16 -22z m781 29 c34 -8 30 -8 -25 -5
-45 4 -59 2 -45 -4 16 -8 10 -9 -25 -9 -25 0 -34 3 -21 5 19 4 21 7 10 14 -18
12 52 11 106 -1z m-1144 -44 c132 -9 213 -27 243 -55 46 -43 49 -72 51 -481
l2 -385 -8 315 c-8 329 -15 401 -47 473 -34 78 -111 106 -347 129 -120 12
-125 13 -70 18 33 3 62 2 65 -1 3 -3 53 -9 111 -13z m759 -2 c-241 -25 -318
-54 -352 -131 -32 -72 -39 -144 -47 -473 l-8 -315 2 385 c2 409 5 438 51 481
30 28 113 47 246 55 59 4 108 10 108 13 0 3 28 4 62 2 59 -4 55 -5 -62 -17z
m-607 9 c-7 -2 -19 -2 -25 0 -7 3 -2 5 12 5 14 0 19 -2 13 -5z m370 0 c-7 -2
-19 -2 -25 0 -7 3 -2 5 12 5 14 0 19 -2 13 -5z m-213 -18 c6 -8 10 -20 7 -27
-4 -8 -6 -7 -6 4 -1 9 -9 22 -18 27 -10 6 -13 11 -7 11 6 0 17 -7 24 -15z m48
4 c-10 -5 -18 -18 -19 -27 0 -11 -2 -12 -6 -4 -6 15 14 42 31 42 6 0 3 -5 -6
-11z"/>
<path d="M18438 24454 c-38 -20 -36 -28 2 -9 17 9 30 18 30 20 0 7 -1 6 -32
-11z"/>
<path d="M18360 24410 c-9 -6 -10 -10 -3 -10 6 0 15 5 18 10 8 12 4 12 -15 0z"/>
<path d="M18310 24380 c-9 -6 -10 -10 -3 -10 6 0 15 5 18 10 8 12 4 12 -15 0z"/>
<path d="M18260 24350 c-8 -5 -12 -11 -10 -14 3 -2 14 2 24 10 22 15 10 19
-14 4z"/>
<path d="M18220 24319 c0 -5 5 -7 10 -4 6 3 10 8 10 11 0 2 -4 4 -10 4 -5 0
-10 -5 -10 -11z"/>
<path d="M18190 24299 c0 -5 5 -7 10 -4 6 3 10 8 10 11 0 2 -4 4 -10 4 -5 0
-10 -5 -10 -11z"/>
<path d="M18160 24279 c0 -5 5 -7 10 -4 6 3 10 8 10 11 0 2 -4 4 -10 4 -5 0
-10 -5 -10 -11z"/>
<path d="M31520 24466 c0 -3 14 -12 30 -21 17 -9 30 -13 30 -11 0 3 -13 12
-30 21 -16 9 -30 13 -30 11z"/>
<path d="M31617 24409 c7 -7 15 -10 18 -7 3 3 -2 9 -12 12 -14 6 -15 5 -6 -5z"/>
<path d="M31667 24379 c7 -7 15 -10 18 -7 3 3 -2 9 -12 12 -14 6 -15 5 -6 -5z"/>
<path d="M31716 24346 c10 -8 21 -12 24 -10 5 6 -21 24 -34 24 -6 0 -1 -6 10
-14z"/>
<path d="M31755 24320 c3 -5 8 -10 11 -10 2 0 4 5 4 10 0 6 -5 10 -11 10 -5 0
-7 -4 -4 -10z"/>
<path d="M31785 24300 c3 -5 8 -10 11 -10 2 0 4 5 4 10 0 6 -5 10 -11 10 -5 0
-7 -4 -4 -10z"/>
<path d="M31815 24280 c3 -5 8 -10 11 -10 2 0 4 5 4 10 0 6 -5 10 -11 10 -5 0
-7 -4 -4 -10z"/>
<path d="M19959 23773 c-13 -16 -12 -17 4 -4 9 7 17 15 17 17 0 8 -8 3 -21
-13z"/>
<path d="M19620 23269 c-7 -11 -10 -23 -7 -25 2 -2 9 7 15 21 14 30 7 33 -8 4z"/>
<path d="M19567 23175 c-24 -50 -20 -58 4 -12 11 22 19 41 17 43 -3 2 -12 -12
-21 -31z"/>
<path d="M19530 23099 c-7 -11 -10 -23 -7 -25 2 -2 9 7 15 21 14 30 7 33 -8 4z"/>
<path d="M19500 23040 c-6 -11 -7 -20 -2 -20 6 0 12 9 15 20 3 11 3 20 1 20
-2 0 -8 -9 -14 -20z"/>
<path d="M19455 22940 c3 -5 8 -10 11 -10 2 0 4 5 4 10 0 6 -5 10 -11 10 -5 0
-7 -4 -4 -10z"/>
<path d="M19435 22890 c3 -5 8 -10 11 -10 2 0 4 5 4 10 0 6 -5 10 -11 10 -5 0
-7 -4 -4 -10z"/>
<path d="M19416 22863 c-4 -9 -1 -21 5 -27 9 -8 10 -7 6 6 -3 9 -1 18 6 21 8
2 8 5 0 10 -6 4 -14 -1 -17 -10z"/>
<path d="M30010 23786 c0 -2 8 -10 18 -17 15 -13 16 -12 3 4 -13 16 -21 21
-21 13z"/>
<path d="M30361 23270 c14 -31 19 -36 19 -24 0 6 -7 19 -16 30 -14 18 -14 18
-3 -6z"/>
<path d="M30401 23205 c0 -5 8 -26 19 -45 11 -19 19 -30 19 -25 0 6 -8 26 -19
45 -11 19 -19 31 -19 25z"/>
<path d="M30451 23100 c14 -31 19 -36 19 -24 0 6 -7 19 -16 30 -14 18 -14 18
-3 -6z"/>
<path d="M30477 23040 c3 -11 9 -20 15 -20 5 0 4 9 -2 20 -6 11 -12 20 -14 20
-2 0 -2 -9 1 -20z"/>
<path d="M30520 22939 c0 -5 5 -7 10 -4 6 3 10 8 10 11 0 2 -4 4 -10 4 -5 0
-10 -5 -10 -11z"/>
<path d="M30540 22889 c0 -5 5 -7 10 -4 6 3 10 8 10 11 0 2 -4 4 -10 4 -5 0
-10 -5 -10 -11z"/>
<path d="M30556 22871 c-4 -6 -3 -11 3 -11 6 0 8 -8 4 -17 -5 -14 -3 -15 7 -6
8 7 9 16 2 28 -6 12 -11 14 -16 6z"/>
<path d="M24881 22784 c0 -11 3 -14 6 -6 3 7 2 16 -1 19 -3 4 -6 -2 -5 -13z"/>
<path d="M24876 22745 c-3 -9 -6 -22 -5 -28 0 -7 5 -1 10 12 5 13 8 26 5 28
-2 2 -6 -3 -10 -12z"/>
<path d="M24867 22693 c-4 -3 -7 -13 -7 -22 1 -13 3 -13 11 2 11 19 8 33 -4
20z"/>
<path d="M25101 22784 c0 -11 3 -14 6 -6 3 7 2 16 -1 19 -3 4 -6 -2 -5 -13z"/>
<path d="M25101 22755 c1 -19 18 -51 18 -35 0 8 -4 22 -9 30 -5 8 -9 11 -9 5z"/>
<path d="M25110 22693 c0 -4 5 -15 10 -23 8 -13 10 -13 10 2 0 9 -4 20 -10 23
-5 3 -10 3 -10 -2z"/>
<path d="M19170 21206 c0 -25 5 -46 10 -46 6 0 10 18 10 39 0 22 -4 43 -10 46
-6 4 -10 -12 -10 -39z"/>
<path d="M30807 21243 c-11 -10 -8 -83 3 -83 6 0 10 20 10 45 0 46 -2 50 -13
38z"/>
<path d="M20445 18680 c10 -11 20 -20 23 -20 3 0 -3 9 -13 20 -10 11 -20 20
-23 20 -3 0 3 -9 13 -20z"/>
<path d="M29534 18678 l-19 -23 23 19 c21 18 27 26 19 26 -2 0 -12 -10 -23
-22z"/>
<path d="M21985 17740 c-3 -5 -2 -10 4 -10 5 0 13 5 16 10 3 6 2 10 -4 10 -5
0 -13 -4 -16 -10z"/>
<path d="M27985 17740 c3 -5 11 -10 16 -10 6 0 7 5 4 10 -3 6 -11 10 -16 10
-6 0 -7 -4 -4 -10z"/>
<path d="M18365 31750 c11 -5 27 -9 35 -9 9 0 8 4 -5 9 -11 5 -27 9 -35 9 -9
0 -8 -4 5 -9z"/>
<path d="M31595 31750 c-13 -5 -14 -9 -5 -9 8 0 24 4 35 9 13 5 14 9 5 9 -8 0
-24 -4 -35 -9z"/>
<path d="M18645 31660 c11 -5 27 -9 35 -9 9 0 8 4 -5 9 -11 5 -27 9 -35 9 -9
0 -8 -4 5 -9z"/>
<path d="M31315 31660 c-13 -5 -14 -9 -5 -9 8 0 24 4 35 9 13 5 14 9 5 9 -8 0
-24 -4 -35 -9z"/>
<path d="M18820 31605 c19 -7 42 -13 50 -13 8 0 -1 6 -20 13 -19 7 -42 13 -50
13 -8 0 1 -6 20 -13z"/>
<path d="M31140 31605 c-19 -7 -28 -13 -20 -13 8 0 31 6 50 13 19 7 28 13 20
13 -8 0 -31 -6 -50 -13z"/>
<path d="M18950 31565 c19 -7 42 -13 50 -13 8 0 -1 6 -20 13 -19 7 -42 13 -50
13 -8 0 1 -6 20 -13z"/>
<path d="M31010 31565 c-19 -7 -28 -13 -20 -13 8 0 31 6 50 13 19 7 28 13 20
13 -8 0 -31 -6 -50 -13z"/>
<path d="M19065 31530 c11 -5 27 -9 35 -9 9 0 8 4 -5 9 -11 5 -27 9 -35 9 -9
0 -8 -4 5 -9z"/>
<path d="M30895 31530 c-13 -5 -14 -9 -5 -9 8 0 24 4 35 9 13 5 14 9 5 9 -8 0
-24 -4 -35 -9z"/>
<path d="M19165 31500 c11 -5 27 -9 35 -9 9 0 8 4 -5 9 -11 5 -27 9 -35 9 -9
0 -8 -4 5 -9z"/>
<path d="M30795 31500 c-13 -5 -14 -9 -5 -9 8 0 24 4 35 9 13 5 14 9 5 9 -8 0
-24 -4 -35 -9z"/>
<path d="M19265 31470 c11 -5 27 -9 35 -9 9 0 8 4 -5 9 -11 5 -27 9 -35 9 -9
0 -8 -4 5 -9z"/>
<path d="M30695 31470 c-13 -5 -14 -9 -5 -9 8 0 24 4 35 9 13 5 14 9 5 9 -8 0
-24 -4 -35 -9z"/>
<path d="M19335 31450 c11 -5 27 -9 35 -9 9 0 8 4 -5 9 -11 5 -27 9 -35 9 -9
0 -8 -4 5 -9z"/>
<path d="M30625 31450 c-13 -5 -14 -9 -5 -9 8 0 24 4 35 9 13 5 14 9 5 9 -8 0
-24 -4 -35 -9z"/>
<path d="M19420 31425 c19 -7 42 -13 50 -13 8 0 -1 6 -20 13 -19 7 -42 13 -50
13 -8 0 1 -6 20 -13z"/>
<path d="M30540 31425 c-19 -7 -28 -13 -20 -13 8 0 31 6 50 13 19 7 28 13 20
13 -8 0 -31 -6 -50 -13z"/>
<path d="M19505 31400 c11 -5 27 -9 35 -9 9 0 8 4 -5 9 -11 5 -27 9 -35 9 -9
0 -8 -4 5 -9z"/>
<path d="M30455 31400 c-13 -5 -14 -9 -5 -9 8 0 24 4 35 9 13 5 14 9 5 9 -8 0
-24 -4 -35 -9z"/>
<path d="M19575 31380 c11 -5 27 -9 35 -9 9 0 8 4 -5 9 -11 5 -27 9 -35 9 -9
0 -8 -4 5 -9z"/>
<path d="M30385 31380 c-13 -5 -14 -9 -5 -9 8 0 24 4 35 9 13 5 14 9 5 9 -8 0
-24 -4 -35 -9z"/>
<path d="M19645 31360 c11 -5 27 -9 35 -9 9 0 8 4 -5 9 -11 5 -27 9 -35 9 -9
0 -8 -4 5 -9z"/>
<path d="M30315 31360 c-13 -5 -14 -9 -5 -9 8 0 24 4 35 9 13 5 14 9 5 9 -8 0
-24 -4 -35 -9z"/>
<path d="M19715 31341 c11 -4 36 -11 55 -15 24 -4 29 -3 15 3 -11 4 -36 11
-55 15 -24 4 -29 3 -15 -3z"/>
<path d="M30225 31335 c-39 -14 -40 -14 -5 -8 41 7 82 22 60 22 -8 0 -33 -7
-55 -14z"/>
<path d="M19825 31310 c11 -5 27 -9 35 -9 9 0 8 4 -5 9 -11 5 -27 9 -35 9 -9
0 -8 -4 5 -9z"/>
<path d="M30135 31310 c-13 -5 -14 -9 -5 -9 8 0 24 4 35 9 13 5 14 9 5 9 -8 0
-24 -4 -35 -9z"/>
<path d="M19895 31290 c11 -5 27 -9 35 -9 9 0 8 4 -5 9 -11 5 -27 9 -35 9 -9
0 -8 -4 5 -9z"/>
<path d="M30065 31290 c-13 -5 -14 -9 -5 -9 8 0 24 4 35 9 13 5 14 9 5 9 -8 0
-24 -4 -35 -9z"/>
<path d="M19958 31273 c7 -3 16 -2 19 1 4 3 -2 6 -13 5 -11 0 -14 -3 -6 -6z"/>
<path d="M30018 31273 c7 -3 16 -2 19 1 4 3 -2 6 -13 5 -11 0 -14 -3 -6 -6z"/>
<path d="M20005 31260 c11 -5 27 -9 35 -9 9 0 8 4 -5 9 -11 5 -27 9 -35 9 -9
0 -8 -4 5 -9z"/>
<path d="M29955 31260 c-13 -5 -14 -9 -5 -9 8 0 24 4 35 9 13 5 14 9 5 9 -8 0
-24 -4 -35 -9z"/>
<path d="M20075 31241 c11 -4 36 -11 55 -15 24 -4 29 -3 15 3 -11 4 -36 11
-55 15 -24 4 -29 3 -15 -3z"/>
<path d="M29865 31235 c-39 -14 -40 -14 -5 -8 41 7 82 22 60 22 -8 0 -33 -7
-55 -14z"/>
<path d="M20185 31211 c11 -4 36 -11 55 -15 24 -4 29 -3 15 3 -11 4 -36 11
-55 15 -24 4 -29 3 -15 -3z"/>
<path d="M29755 31205 c-39 -14 -40 -14 -5 -8 41 7 82 22 60 22 -8 0 -33 -7
-55 -14z"/>
<path d="M20295 31180 c11 -5 27 -9 35 -9 9 0 8 4 -5 9 -11 5 -27 9 -35 9 -9
0 -8 -4 5 -9z"/>
<path d="M29665 31180 c-13 -5 -14 -9 -5 -9 8 0 24 4 35 9 13 5 14 9 5 9 -8 0
-24 -4 -35 -9z"/>
<path d="M20358 31163 c7 -3 16 -2 19 1 4 3 -2 6 -13 5 -11 0 -14 -3 -6 -6z"/>
<path d="M29618 31163 c7 -3 16 -2 19 1 4 3 -2 6 -13 5 -11 0 -14 -3 -6 -6z"/>
<path d="M20405 31150 c11 -5 27 -9 35 -9 9 0 8 4 -5 9 -11 5 -27 9 -35 9 -9
0 -8 -4 5 -9z"/>
<path d="M29555 31150 c-13 -5 -14 -9 -5 -9 8 0 24 4 35 9 13 5 14 9 5 9 -8 0
-24 -4 -35 -9z"/>
<path d="M20475 31131 c11 -4 36 -11 55 -15 24 -4 29 -3 15 3 -11 4 -36 11
-55 15 -24 4 -29 3 -15 -3z"/>
<path d="M29465 31125 c-39 -14 -40 -14 -5 -8 41 7 82 22 60 22 -8 0 -33 -7
-55 -14z"/>
<path d="M20585 31101 c11 -4 36 -11 55 -15 24 -4 29 -3 15 3 -11 4 -36 11
-55 15 -24 4 -29 3 -15 -3z"/>
<path d="M29355 31095 c-39 -14 -40 -14 -5 -8 41 7 82 22 60 22 -8 0 -33 -7
-55 -14z"/>
<path d="M20695 31071 c11 -4 36 -11 55 -15 24 -4 29 -3 15 3 -11 4 -36 11
-55 15 -24 4 -29 3 -15 -3z"/>
<path d="M29245 31065 c-39 -14 -40 -14 -5 -8 41 7 82 22 60 22 -8 0 -33 -7
-55 -14z"/>
<path d="M20805 31040 c11 -5 27 -9 35 -9 9 0 8 4 -5 9 -11 5 -27 9 -35 9 -9
0 -8 -4 5 -9z"/>
<path d="M29155 31040 c-13 -5 -14 -9 -5 -9 8 0 24 4 35 9 13 5 14 9 5 9 -8 0
-24 -4 -35 -9z"/>
<path d="M20915 31010 c33 -11 74 -22 90 -24 17 -3 3 3 -30 14 -33 11 -73 22
-90 24 -16 3 -3 -3 30 -14z"/>
<path d="M29042 31010 c-77 -23 -97 -32 -57 -25 41 7 153 43 135 43 -8 0 -44
-8 -78 -18z"/>
<path d="M21055 30970 c11 -5 27 -9 35 -9 9 0 8 4 -5 9 -11 5 -27 9 -35 9 -9
0 -8 -4 5 -9z"/>
<path d="M28905 30970 c-13 -5 -14 -9 -5 -9 8 0 24 4 35 9 13 5 14 9 5 9 -8 0
-24 -4 -35 -9z"/>
<path d="M21125 30950 c11 -5 27 -9 35 -9 9 0 8 4 -5 9 -11 5 -27 9 -35 9 -9
0 -8 -4 5 -9z"/>
<path d="M28835 30950 c-13 -5 -14 -9 -5 -9 8 0 24 4 35 9 13 5 14 9 5 9 -8 0
-24 -4 -35 -9z"/>
<path d="M21250 30914 c41 -13 80 -23 85 -23 6 1 -24 12 -65 25 -41 13 -79 23
-85 23 -5 -1 24 -12 65 -25z"/>
<path d="M28715 30915 c-38 -13 -65 -23 -60 -24 6 0 44 10 85 23 41 13 68 24
60 24 -8 0 -46 -10 -85 -23z"/>
<path d="M21380 30875 c19 -7 42 -13 50 -13 8 0 -1 6 -20 13 -19 7 -42 13 -50
13 -8 0 1 -6 20 -13z"/>
<path d="M28580 30875 c-19 -7 -28 -13 -20 -13 8 0 31 6 50 13 19 7 28 13 20
13 -8 0 -31 -6 -50 -13z"/>
<path d="M21615 30804 c619 -199 1029 -363 1460 -583 235 -120 390 -211 705
-411 118 -75 248 -156 289 -179 73 -43 381 -193 381 -187 0 2 -70 43 -155 90
-86 48 -224 130 -308 183 -722 458 -1153 672 -1872 930 -191 68 -642 214 -660
212 -5 0 67 -25 160 -55z"/>
<path d="M28290 30787 c-622 -199 -1103 -396 -1555 -635 -164 -87 -462 -264
-732 -435 -84 -53 -222 -135 -308 -183 -85 -47 -155 -88 -155 -90 0 -6 308
144 381 187 41 23 171 104 289 179 315 200 470 291 705 411 431 220 841 384
1460 583 94 30 163 54 155 54 -8 1 -116 -32 -240 -71z"/>
<path d="M17020 30842 c8 -5 26 -13 40 -16 17 -5 20 -4 10 2 -8 5 -26 13 -40
16 -17 5 -20 4 -10 -2z"/>
<path d="M32935 30835 c-25 -12 -26 -14 -5 -9 28 7 60 23 45 23 -5 0 -23 -6
-40 -14z"/>
<path d="M17210 30775 c0 -6 360 -123 599 -195 246 -73 618 -166 856 -214 202
-41 587 -106 619 -105 12 0 -80 18 -204 39 -596 103 -1209 258 -1774 450 -97
32 -96 32 -96 25z"/>
<path d="M32695 30754 c-38 -14 -164 -54 -280 -90 -531 -166 -975 -273 -1505
-364 -124 -21 -216 -39 -204 -39 32 -1 417 64 619 105 238 48 610 141 856 214
239 72 599 189 599 195 0 8 -11 5 -85 -21z"/>
<path d="M19323 30253 c9 -2 25 -2 35 0 9 3 1 5 -18 5 -19 0 -27 -2 -17 -5z"/>
<path d="M30633 30253 c9 -2 25 -2 35 0 9 3 1 5 -18 5 -19 0 -27 -2 -17 -5z"/>
<path d="M19393 30243 c9 -2 25 -2 35 0 9 3 1 5 -18 5 -19 0 -27 -2 -17 -5z"/>
<path d="M30563 30243 c9 -2 25 -2 35 0 9 3 1 5 -18 5 -19 0 -27 -2 -17 -5z"/>
<path d="M19473 30233 c9 -2 25 -2 35 0 9 3 1 5 -18 5 -19 0 -27 -2 -17 -5z"/>
<path d="M30483 30233 c9 -2 25 -2 35 0 9 3 1 5 -18 5 -19 0 -27 -2 -17 -5z"/>
<path d="M19553 30223 c9 -2 23 -2 30 0 6 3 -1 5 -18 5 -16 0 -22 -2 -12 -5z"/>
<path d="M30413 30223 c9 -2 23 -2 30 0 6 3 -1 5 -18 5 -16 0 -22 -2 -12 -5z"/>
<path d="M19633 30213 c9 -2 25 -2 35 0 9 3 1 5 -18 5 -19 0 -27 -2 -17 -5z"/>
<path d="M30323 30213 c9 -2 25 -2 35 0 9 3 1 5 -18 5 -19 0 -27 -2 -17 -5z"/>
<path d="M19723 30203 c9 -2 23 -2 30 0 6 3 -1 5 -18 5 -16 0 -22 -2 -12 -5z"/>
<path d="M30243 30203 c9 -2 23 -2 30 0 6 3 -1 5 -18 5 -16 0 -22 -2 -12 -5z"/>
<path d="M19813 30193 c9 -2 23 -2 30 0 6 3 -1 5 -18 5 -16 0 -22 -2 -12 -5z"/>
<path d="M30153 30193 c9 -2 23 -2 30 0 6 3 -1 5 -18 5 -16 0 -22 -2 -12 -5z"/>
<path d="M19903 30183 c9 -2 23 -2 30 0 6 3 -1 5 -18 5 -16 0 -22 -2 -12 -5z"/>
<path d="M30063 30183 c9 -2 23 -2 30 0 6 3 -1 5 -18 5 -16 0 -22 -2 -12 -5z"/>
<path d="M19998 30173 c6 -2 18 -2 25 0 6 3 1 5 -13 5 -14 0 -19 -2 -12 -5z"/>
<path d="M29968 30173 c6 -2 18 -2 25 0 6 3 1 5 -13 5 -14 0 -19 -2 -12 -5z"/>
<path d="M20098 30163 c6 -2 18 -2 25 0 6 3 1 5 -13 5 -14 0 -19 -2 -12 -5z"/>
<path d="M29868 30163 c6 -2 18 -2 25 0 6 3 1 5 -13 5 -14 0 -19 -2 -12 -5z"/>
<path d="M20198 30153 c6 -2 18 -2 25 0 6 3 1 5 -13 5 -14 0 -19 -2 -12 -5z"/>
<path d="M29768 30153 c6 -2 18 -2 25 0 6 3 1 5 -13 5 -14 0 -19 -2 -12 -5z"/>
<path d="M20308 30143 c7 -3 16 -2 19 1 4 3 -2 6 -13 5 -11 0 -14 -3 -6 -6z"/>
<path d="M29668 30143 c7 -3 16 -2 19 1 4 3 -2 6 -13 5 -11 0 -14 -3 -6 -6z"/>
<path d="M20408 30133 c7 -3 16 -2 19 1 4 3 -2 6 -13 5 -11 0 -14 -3 -6 -6z"/>
<path d="M29568 30133 c7 -3 16 -2 19 1 4 3 -2 6 -13 5 -11 0 -14 -3 -6 -6z"/>
<path d="M20508 30123 c7 -3 16 -2 19 1 4 3 -2 6 -13 5 -11 0 -14 -3 -6 -6z"/>
<path d="M29468 30123 c7 -3 16 -2 19 1 4 3 -2 6 -13 5 -11 0 -14 -3 -6 -6z"/>
<path d="M15120 29736 c0 -3 14 -12 30 -21 17 -9 30 -13 30 -11 0 3 -13 12
-30 21 -16 9 -30 13 -30 11z"/>
<path d="M34838 29724 c-38 -20 -36 -28 2 -9 17 9 30 18 30 20 0 7 -1 6 -32
-11z"/>
<path d="M24605 29320 c21 -22 41 -40 44 -40 3 0 -13 18 -34 40 -21 22 -41 40
-44 40 -3 0 13 -18 34 -40z"/>
<path d="M25375 29318 l-40 -43 43 40 c39 36 47 45 39 45 -2 0 -21 -19 -42
-42z"/>
<path d="M24891 28704 c0 -11 3 -14 6 -6 3 7 2 16 -1 19 -3 4 -6 -2 -5 -13z"/>
<path d="M25091 28704 c0 -11 3 -14 6 -6 3 7 2 16 -1 19 -3 4 -6 -2 -5 -13z"/>
<path d="M24906 28640 c3 -25 12 -88 19 -140 13 -81 37 -360 49 -555 2 -33 2
16 0 110 -5 196 -26 411 -54 540 -11 50 -17 70 -14 45z"/>
<path d="M25061 28553 c-28 -172 -40 -300 -45 -500 -2 -93 -2 -145 0 -118 2
28 8 122 14 210 13 186 24 292 46 428 9 54 14 100 11 103 -2 2 -14 -53 -26
-123z"/>
<path d="M20710 25240 c-11 -7 -6 -10 20 -10 19 0 42 5 50 10 11 7 6 10 -20
10 -19 0 -42 -5 -50 -10z"/>
<path d="M29210 25240 c8 -5 31 -10 50 -10 26 0 31 3 20 10 -8 5 -31 10 -50
10 -26 0 -31 -3 -20 -10z"/>
<path d="M20810 25228 c0 -12 58 -10 65 2 4 7 -6 10 -29 8 -20 -1 -36 -6 -36
-10z"/>
<path d="M29115 25230 c7 -12 65 -14 65 -2 0 4 -16 9 -36 10 -23 2 -33 -1 -29
-8z"/>
<path d="M20915 25220 c3 -5 17 -10 31 -10 13 0 24 5 24 10 0 6 -14 10 -31 10
-17 0 -28 -4 -24 -10z"/>
<path d="M29020 25220 c0 -5 11 -10 24 -10 14 0 28 5 31 10 4 6 -7 10 -24 10
-17 0 -31 -4 -31 -10z"/>
<path d="M12040 25210 c8 -5 20 -10 25 -10 6 0 3 5 -5 10 -8 5 -19 10 -25 10
-5 0 -3 -5 5 -10z"/>
<path d="M21020 25210 c20 -13 53 -13 45 0 -3 6 -18 10 -33 10 -21 0 -24 -2
-12 -10z"/>
<path d="M28925 25210 c-8 -13 25 -13 45 0 12 8 9 10 -12 10 -15 0 -30 -4 -33
-10z"/>
<path d="M37930 25210 c-8 -5 -10 -10 -5 -10 6 0 17 5 25 10 8 5 11 10 5 10
-5 0 -17 -5 -25 -10z"/>
<path d="M21115 25200 c11 -5 29 -9 40 -9 17 -1 17 1 5 9 -8 5 -26 9 -40 9
-23 0 -23 -1 -5 -9z"/>
<path d="M28830 25200 c-12 -8 -12 -10 5 -9 11 0 29 4 40 9 18 8 18 9 -5 9
-14 0 -32 -4 -40 -9z"/>
<path d="M21220 25190 c8 -5 24 -9 35 -9 l20 0 -20 9 c-11 5 -27 9 -35 9 -13
1 -13 0 0 -9z"/>
<path d="M28735 25190 l-20 -9 20 0 c11 0 27 4 35 9 13 9 13 10 0 9 -8 0 -24
-4 -35 -9z"/>
<path d="M21298 25183 c6 -2 18 -2 25 0 6 3 1 5 -13 5 -14 0 -19 -2 -12 -5z"/>
<path d="M28668 25183 c6 -2 18 -2 25 0 6 3 1 5 -13 5 -14 0 -19 -2 -12 -5z"/>
<path d="M21348 25173 c7 -3 16 -2 19 1 4 3 -2 6 -13 5 -11 0 -14 -3 -6 -6z"/>
<path d="M21398 25173 c6 -2 18 -2 25 0 6 3 1 5 -13 5 -14 0 -19 -2 -12 -5z"/>
<path d="M28568 25173 c6 -2 18 -2 25 0 6 3 1 5 -13 5 -14 0 -19 -2 -12 -5z"/>
<path d="M28628 25173 c7 -3 16 -2 19 1 4 3 -2 6 -13 5 -11 0 -14 -3 -6 -6z"/>
<path d="M21448 25163 c7 -3 16 -2 19 1 4 3 -2 6 -13 5 -11 0 -14 -3 -6 -6z"/>
<path d="M21498 25163 c7 -3 16 -2 19 1 4 3 -2 6 -13 5 -11 0 -14 -3 -6 -6z"/>
<path d="M28478 25163 c7 -3 16 -2 19 1 4 3 -2 6 -13 5 -11 0 -14 -3 -6 -6z"/>
<path d="M28528 25163 c7 -3 16 -2 19 1 4 3 -2 6 -13 5 -11 0 -14 -3 -6 -6z"/>
<path d="M21548 25153 c7 -3 16 -2 19 1 4 3 -2 6 -13 5 -11 0 -14 -3 -6 -6z"/>
<path d="M28428 25153 c7 -3 16 -2 19 1 4 3 -2 6 -13 5 -11 0 -14 -3 -6 -6z"/>
<path d="M21648 25143 c7 -3 16 -2 19 1 4 3 -2 6 -13 5 -11 0 -14 -3 -6 -6z"/>
<path d="M21688 25143 c7 -3 16 -2 19 1 4 3 -2 6 -13 5 -11 0 -14 -3 -6 -6z"/>
<path d="M28288 25143 c7 -3 16 -2 19 1 4 3 -2 6 -13 5 -11 0 -14 -3 -6 -6z"/>
<path d="M28328 25143 c7 -3 16 -2 19 1 4 3 -2 6 -13 5 -11 0 -14 -3 -6 -6z"/>
<path d="M22405 25049 c-12 -4 19 -8 74 -8 52 -1 92 2 89 5 -10 9 -141 12
-163 3z"/>
<path d="M27450 25050 c-26 -5 -9 -8 59 -9 52 0 92 1 89 4 -9 9 -112 13 -148
5z"/>
<path d="M22629 25039 c-9 -5 16 -9 65 -9 44 0 77 2 75 4 -9 9 -127 13 -140 5z"/>
<path d="M27260 25040 c-40 -6 -35 -7 34 -8 44 -1 77 1 74 4 -10 9 -61 12
-108 4z"/>
<path d="M22861 25029 c8 -5 43 -8 79 -8 79 1 69 6 -24 12 -42 3 -63 1 -55 -4z"/>
<path d="M27050 25030 l-65 -7 65 -1 c36 -1 72 3 80 8 13 9 13 10 0 8 -8 -1
-44 -4 -80 -8z"/>
<path d="M23210 25019 l-45 -6 58 -1 c31 -1 57 0 57 2 0 9 -28 11 -70 5z"/>
<path d="M26717 25018 c-6 -4 15 -7 48 -7 64 1 65 5 2 11 -20 2 -43 0 -50 -4z"/>
<path d="M23220 25000 l-345 -5 375 -3 c229 -1 381 2 390 8 11 7 2 9 -30 8
-25 -2 -200 -5 -390 -8z"/>
<path d="M26353 24998 c7 -4 181 -7 387 -6 206 1 362 3 345 4 -67 7 -742 8
-732 2z"/>
<path d="M21913 24993 c20 -2 54 -2 75 0 20 2 3 4 -38 4 -41 0 -58 -2 -37 -4z"/>
<path d="M22628 24993 c7 -3 16 -2 19 1 4 3 -2 6 -13 5 -11 0 -14 -3 -6 -6z"/>
<path d="M27348 24993 c7 -3 16 -2 19 1 4 3 -2 6 -13 5 -11 0 -14 -3 -6 -6z"/>
<path d="M28003 24993 c20 -2 54 -2 75 0 20 2 3 4 -38 4 -41 0 -58 -2 -37 -4z"/>
<path d="M21588 24983 c18 -2 45 -2 60 0 15 2 0 4 -33 4 -33 0 -45 -2 -27 -4z"/>
<path d="M24113 24983 c26 -2 67 -2 90 0 23 2 2 3 -48 3 -49 0 -68 -1 -42 -3z"/>
<path d="M25793 24983 c26 -2 67 -2 90 0 23 2 2 3 -48 3 -49 0 -68 -1 -42 -3z"/>
<path d="M28348 24983 c18 -2 45 -2 60 0 15 2 0 4 -33 4 -33 0 -45 -2 -27 -4z"/>
<path d="M21335 24970 c-12 -4 7 -6 45 -3 36 3 67 7 69 9 9 8 -95 2 -114 -6z"/>
<path d="M21498 24973 c7 -3 16 -2 19 1 4 3 -2 6 -13 5 -11 0 -14 -3 -6 -6z"/>
<path d="M23468 24973 c7 -3 16 -2 19 1 4 3 -2 6 -13 5 -11 0 -14 -3 -6 -6z"/>
<path d="M26508 24973 c7 -3 16 -2 19 1 4 3 -2 6 -13 5 -11 0 -14 -3 -6 -6z"/>
<path d="M28478 24973 c7 -3 16 -2 19 1 4 3 -2 6 -13 5 -11 0 -14 -3 -6 -6z"/>
<path d="M28541 24976 c2 -2 33 -6 69 -9 38 -3 57 -1 45 3 -19 8 -123 14 -114
6z"/>
<path d="M21190 24962 c0 -4 17 -6 38 -4 64 6 69 10 15 11 -29 0 -53 -3 -53
-7z"/>
<path d="M23298 24963 c6 -2 18 -2 25 0 6 3 1 5 -13 5 -14 0 -19 -2 -12 -5z"/>
<path d="M23533 24963 c9 -2 23 -2 30 0 6 3 -1 5 -18 5 -16 0 -22 -2 -12 -5z"/>
<path d="M26433 24963 c9 -2 23 -2 30 0 6 3 -1 5 -18 5 -16 0 -22 -2 -12 -5z"/>
<path d="M26668 24963 c6 -2 18 -2 25 0 6 3 1 5 -13 5 -14 0 -19 -2 -12 -5z"/>
<path d="M28710 24964 c38 -8 90 -9 90 -2 0 4 -24 7 -52 7 -29 -1 -46 -3 -38
-5z"/>
<path d="M21064 24953 c7 -7 77 -5 85 3 2 2 -17 4 -44 4 -27 0 -45 -3 -41 -7z"/>
<path d="M23173 24953 c9 -2 25 -2 35 0 9 3 1 5 -18 5 -19 0 -27 -2 -17 -5z"/>
<path d="M23408 24953 c7 -3 16 -2 19 1 4 3 -2 6 -13 5 -11 0 -14 -3 -6 -6z"/>
<path d="M26568 24953 c7 -3 16 -2 19 1 4 3 -2 6 -13 5 -11 0 -14 -3 -6 -6z"/>
<path d="M26783 24953 c9 -2 25 -2 35 0 9 3 1 5 -18 5 -19 0 -27 -2 -17 -5z"/>
<path d="M28841 24956 c8 -8 78 -10 85 -3 4 4 -14 7 -41 7 -27 0 -46 -2 -44
-4z"/>
<path d="M20950 24935 c8 -10 17 -12 24 -6 6 5 22 11 36 14 14 2 4 5 -24 6
-42 1 -47 -1 -36 -14z"/>
<path d="M23058 24943 c6 -2 18 -2 25 0 6 3 1 5 -13 5 -14 0 -19 -2 -12 -5z"/>
<path d="M26908 24943 c6 -2 18 -2 25 0 6 3 1 5 -13 5 -14 0 -19 -2 -12 -5z"/>
<path d="M28980 24943 c14 -3 30 -9 36 -14 7 -6 16 -4 24 6 11 13 6 15 -36 14
-28 -1 -38 -4 -24 -6z"/>
<path d="M20840 24928 c0 -6 3 -8 7 -5 3 4 12 2 20 -4 9 -8 13 -8 13 -1 0 6
10 13 23 15 12 2 3 5 -20 6 -27 0 -43 -3 -43 -11z"/>
<path d="M22968 24933 c6 -2 18 -2 25 0 6 3 1 5 -13 5 -14 0 -19 -2 -12 -5z"/>
<path d="M23210 24936 c0 -2 7 -6 15 -10 8 -3 15 -1 15 4 0 6 -7 10 -15 10 -8
0 -15 -2 -15 -4z"/>
<path d="M26750 24930 c0 -5 7 -7 15 -4 8 4 15 8 15 10 0 2 -7 4 -15 4 -8 0
-15 -4 -15 -10z"/>
<path d="M26998 24933 c6 -2 18 -2 25 0 6 3 1 5 -13 5 -14 0 -19 -2 -12 -5z"/>
<path d="M29088 24933 c12 -2 22 -9 22 -15 0 -7 4 -7 13 1 8 6 17 8 20 4 4 -3
7 -1 7 5 0 8 -16 11 -42 11 -24 -1 -33 -4 -20 -6z"/>
<path d="M19956 24921 c-4 -5 3 -7 14 -4 23 6 26 13 6 13 -8 0 -17 -4 -20 -9z"/>
<path d="M22884 24921 c5 -8 56 -3 56 5 0 2 -14 4 -31 4 -16 0 -28 -4 -25 -9z"/>
<path d="M27050 24926 c0 -8 51 -13 56 -5 3 5 -9 9 -25 9 -17 0 -31 -2 -31 -4z"/>
<path d="M30000 24926 c0 -2 9 -6 20 -9 11 -3 18 -1 14 4 -5 9 -34 13 -34 5z"/>
<path d="M19880 24910 c-13 -9 -13 -10 0 -10 8 0 22 5 30 10 13 9 13 10 0 10
-8 0 -22 -5 -30 -10z"/>
<path d="M22796 24912 c-6 -10 40 -10 50 1 4 4 -4 7 -19 7 -14 0 -28 -4 -31
-8z"/>
<path d="M23070 24916 c0 -7 40 -14 44 -7 3 4 -6 8 -20 9 -13 1 -24 0 -24 -2z"/>
<path d="M26876 24909 c4 -7 44 0 44 7 0 2 -11 3 -24 2 -14 -1 -23 -5 -20 -9z"/>
<path d="M27144 24913 c10 -11 56 -11 50 -1 -3 4 -17 8 -31 8 -15 0 -23 -3
-19 -7z"/>
<path d="M30080 24910 c8 -5 22 -10 30 -10 13 0 13 1 0 10 -8 5 -22 10 -30 10
-13 0 -13 -1 0 -10z"/>
<path d="M19815 24900 c-3 -5 1 -10 9 -10 9 0 16 5 16 10 0 6 -4 10 -9 10 -6
0 -13 -4 -16 -10z"/>
<path d="M23018 24903 c7 -3 16 -2 19 1 4 3 -2 6 -13 5 -11 0 -14 -3 -6 -6z"/>
<path d="M26958 24903 c7 -3 16 -2 19 1 4 3 -2 6 -13 5 -11 0 -14 -3 -6 -6z"/>
<path d="M30150 24900 c0 -5 7 -10 16 -10 8 0 12 5 9 10 -3 6 -10 10 -16 10
-5 0 -9 -4 -9 -10z"/>
<path d="M19765 24890 c3 -5 11 -10 16 -10 6 0 7 5 4 10 -3 6 -11 10 -16 10
-6 0 -7 -4 -4 -10z"/>
<path d="M22947 24893 c-10 -10 -8 -23 4 -23 5 0 7 5 3 12 -5 8 2 9 27 5 24
-5 30 -4 19 3 -17 11 -44 13 -53 3z"/>
<path d="M26990 24890 c-11 -7 -5 -8 19 -3 25 4 32 3 27 -5 -4 -7 -2 -12 4
-12 7 0 10 6 8 13 -6 16 -39 20 -58 7z"/>
<path d="M30205 24890 c-3 -5 -2 -10 4 -10 5 0 13 5 16 10 3 6 2 10 -4 10 -5
0 -13 -4 -16 -10z"/>
<path d="M19700 24880 c0 -5 7 -10 15 -10 8 0 15 5 15 10 0 6 -7 10 -15 10 -8
0 -15 -4 -15 -10z"/>
<path d="M22875 24881 c-30 -6 -37 -22 -13 -30 7 -2 9 0 5 5 -4 4 9 14 30 20
41 13 27 16 -22 5z"/>
<path d="M27093 24877 c21 -7 35 -16 31 -20 -4 -4 -2 -7 4 -7 14 0 25 17 15
23 -5 2 -26 7 -48 10 l-40 6 38 -12z"/>
<path d="M30260 24880 c0 -5 7 -10 15 -10 8 0 15 5 15 10 0 6 -7 10 -15 10 -8
0 -15 -4 -15 -10z"/>
<path d="M19645 24870 c3 -5 13 -10 21 -10 8 0 14 5 14 10 0 6 -9 10 -21 10
-11 0 -17 -4 -14 -10z"/>
<path d="M30310 24870 c0 -5 6 -10 14 -10 8 0 18 5 21 10 3 6 -3 10 -14 10
-12 0 -21 -4 -21 -10z"/>
<path d="M19595 24860 c3 -5 16 -10 27 -10 26 0 16 13 -13 17 -12 2 -18 -1
-14 -7z"/>
<path d="M22782 24863 c-25 -5 -25 -24 -1 -31 11 -3 11 -1 -1 8 -12 9 -8 10
20 6 22 -4 30 -3 21 3 -11 7 -11 9 0 14 17 7 -4 7 -39 0z"/>
<path d="M27169 24862 c11 -8 11 -10 0 -15 -8 -3 2 -3 21 0 27 3 31 2 20 -6
-9 -7 -10 -11 -3 -11 12 0 28 18 22 24 -2 2 -20 7 -39 10 -23 5 -30 4 -21 -2z"/>
<path d="M30354 24858 c-3 -4 4 -8 15 -8 11 0 22 4 26 9 3 6 -4 9 -16 8 -11
-1 -23 -5 -25 -9z"/>
<path d="M19526 24851 c-3 -5 -16 -7 -29 -5 -20 4 -21 4 -2 -5 19 -9 19 -10 1
-10 -11 -1 -17 -3 -14 -6 3 -3 19 -2 37 1 24 5 29 9 19 16 -8 6 0 7 22 2 19
-3 31 -3 27 2 -12 12 -55 16 -61 5z"/>
<path d="M30403 24847 c-3 -5 9 -6 28 -2 22 4 29 3 21 -3 -10 -7 -5 -11 19
-16 18 -3 34 -4 37 -1 3 3 -3 5 -14 6 -18 0 -18 1 1 10 19 9 18 9 -2 5 -13 -2
-25 0 -28 5 -7 11 -55 8 -62 -4z"/>
<path d="M22675 24835 c-45 -15 -45 -15 8 -19 23 -2 33 0 25 5 -7 5 -11 9 -8
10 34 6 43 8 48 13 9 10 -31 5 -73 -9z"/>
<path d="M27242 24844 c5 -5 14 -7 48 -13 3 -1 -1 -5 -8 -10 -11 -6 43 -7 68
-1 3 1 -15 8 -40 16 -47 14 -78 18 -68 8z"/>
<path d="M19435 24830 c-7 -11 22 -26 32 -16 4 3 -2 6 -13 7 -18 0 -18 1 1 9
16 7 17 9 3 9 -9 1 -20 -4 -23 -9z"/>
<path d="M30535 24831 l20 -8 -20 -6 -20 -6 20 2 c24 3 23 21 -2 24 -15 2 -14
1 2 -6z"/>
<path d="M19370 24821 c-23 -7 -22 -8 14 -14 22 -3 42 -4 45 -2 2 3 -4 5 -15
5 -16 0 -17 2 -4 10 13 9 13 10 0 9 -8 -1 -26 -4 -40 -8z"/>
<path d="M30580 24821 c13 -9 12 -11 -4 -11 -11 0 -17 -2 -14 -5 3 -3 23 -1
44 4 21 5 32 10 24 10 -8 1 -26 4 -40 7 -20 4 -22 3 -10 -5z"/>
<path d="M19368 24793 c7 -3 16 -2 19 1 4 3 -2 6 -13 5 -11 0 -14 -3 -6 -6z"/>
<path d="M30608 24793 c7 -3 16 -2 19 1 4 3 -2 6 -13 5 -11 0 -14 -3 -6 -6z"/>
<path d="M20048 24763 c7 -3 16 -2 19 1 4 3 -2 6 -13 5 -11 0 -14 -3 -6 -6z"/>
<path d="M22523 24760 c-34 -14 -28 -21 7 -9 17 6 30 13 30 15 0 6 -12 4 -37
-6z"/>
<path d="M27430 24767 c0 -3 15 -10 32 -16 18 -6 28 -7 23 -2 -12 10 -55 25
-55 18z"/>
<path d="M29928 24763 c7 -3 16 -2 19 1 4 3 -2 6 -13 5 -11 0 -14 -3 -6 -6z"/>
<path d="M19758 24682 c-26 -9 -50 -20 -54 -24 -10 -11 89 23 101 33 12 11 10
11 -47 -9z"/>
<path d="M30185 24691 c6 -4 32 -16 60 -25 27 -9 45 -12 40 -7 -6 4 -32 16
-60 25 -27 9 -45 12 -40 7z"/>
<path d="M19663 24650 c-13 -5 -23 -12 -23 -15 0 -9 16 -5 36 10 22 16 19 18
-13 5z"/>
<path d="M30314 24645 c22 -17 40 -20 32 -6 -3 5 -16 11 -28 14 -22 6 -22 5
-4 -8z"/>
<path d="M19590 24623 c-19 -9 -38 -15 -42 -15 -5 1 -8 -3 -8 -9 0 -7 7 -8 18
-4 9 4 29 12 45 17 15 5 27 14 27 19 0 11 2 12 -40 -8z"/>
<path d="M30360 24630 c0 -4 12 -13 28 -18 15 -5 35 -13 45 -17 10 -4 17 -3
17 5 0 6 -4 9 -9 5 -5 -3 -12 -1 -15 4 -8 13 -66 32 -66 21z"/>
<path d="M21818 24600 c-31 -16 -60 -35 -64 -41 -5 -9 114 51 135 68 16 12
-23 -3 -71 -27z"/>
<path d="M28101 24627 c21 -17 140 -77 135 -68 -7 11 -119 71 -132 71 -4 0 -5
-1 -3 -3z"/>
<path d="M20900 24495 c-25 -13 -40 -24 -35 -24 6 0 30 11 55 24 25 13 41 24
35 24 -5 0 -30 -11 -55 -24z"/>
<path d="M29070 24495 c25 -13 50 -24 55 -24 6 0 -10 11 -35 24 -25 13 -49 24
-55 24 -5 0 10 -11 35 -24z"/>
<path d="M20650 24349 c0 -5 -5 -7 -10 -4 -6 3 -13 -1 -16 -9 -3 -9 -11 -13
-17 -9 -6 4 -7 1 -2 -7 6 -10 11 -9 21 4 7 10 16 17 20 16 5 -1 10 3 12 9 2 6
1 11 -2 11 -3 0 -6 -5 -6 -11z"/>
<path d="M29334 24350 c1 -7 6 -12 11 -12 6 -1 15 -8 21 -16 9 -12 13 -12 19
-2 5 8 4 11 -2 7 -6 -4 -14 0 -17 9 -3 8 -10 13 -15 10 -5 -4 -12 -1 -14 4 -4
7 -5 6 -3 0z"/>
<path d="M20576 24298 c3 -5 10 -6 15 -3 13 9 11 12 -6 12 -8 0 -12 -4 -9 -9z"/>
<path d="M29396 24298 c3 -5 10 -6 15 -3 13 9 11 12 -6 12 -8 0 -12 -4 -9 -9z"/>
<path d="M21449 24283 c-13 -15 -12 -15 9 -4 23 12 28 21 13 21 -5 0 -15 -7
-22 -17z"/>
<path d="M28510 24295 c0 -2 10 -10 23 -16 20 -11 21 -11 8 4 -13 16 -31 23
-31 12z"/>
<path d="M20543 24275 c0 -8 4 -12 9 -9 5 3 6 10 3 15 -9 13 -12 11 -12 -6z"/>
<path d="M29435 24281 c-3 -5 -2 -12 3 -15 5 -3 9 1 9 9 0 17 -3 19 -12 6z"/>
<path d="M20513 24255 c0 -8 4 -12 9 -9 5 3 6 10 3 15 -9 13 -12 11 -12 -6z"/>
<path d="M29465 24261 c-3 -5 -2 -12 3 -15 5 -3 9 1 9 9 0 17 -3 19 -12 6z"/>
<path d="M20479 24243 c-1 -5 -1 -12 0 -17 1 -5 -5 -6 -13 -3 -9 4 -18 1 -22
-5 -4 -7 -3 -8 4 -4 7 4 12 2 12 -5 0 -10 3 -10 12 -1 11 11 20 42 12 42 -2 0
-5 -3 -5 -7z"/>
<path d="M29504 24235 c3 -21 26 -44 26 -26 0 7 5 9 12 5 7 -4 8 -3 4 4 -4 6
-14 8 -23 5 -10 -4 -14 -2 -9 5 3 6 2 13 -3 16 -5 4 -8 -1 -7 -9z"/>
<path d="M20411 24196 c-12 -14 -11 -16 5 -9 17 6 18 5 4 -13 -14 -19 -14 -19
8 0 22 19 30 32 13 22 -5 -4 -11 -1 -13 5 -2 7 -9 5 -17 -5z"/>
<path d="M21199 24183 l-24 -28 28 24 c25 23 32 31 24 31 -2 0 -14 -12 -28
-27z"/>
<path d="M28780 24185 c13 -14 26 -25 28 -25 3 0 -5 11 -18 25 -13 14 -26 25
-28 25 -3 0 5 -11 18 -25z"/>
<path d="M29560 24199 c0 -5 -6 -7 -12 -3 -7 4 -4 -2 6 -14 22 -26 35 -30 15
-5 -12 15 -12 16 5 10 16 -6 17 -5 6 8 -15 18 -20 19 -20 4z"/>
<path d="M21064 24048 l-19 -23 23 19 c21 18 27 26 19 26 -2 0 -12 -10 -23
-22z"/>
<path d="M28915 24050 c10 -11 20 -20 23 -20 3 0 -3 9 -13 20 -10 11 -20 20
-23 20 -3 0 3 -9 13 -20z"/>
<path d="M9033 19783 c20 -2 54 -2 75 0 20 2 3 4 -38 4 -41 0 -58 -2 -37 -4z"/>
<path d="M40883 19783 c20 -2 54 -2 75 0 20 2 3 4 -38 4 -41 0 -58 -2 -37 -4z"/>
<path d="M23121 7584 c0 -11 3 -14 6 -6 3 7 2 16 -1 19 -3 4 -6 -2 -5 -13z"/>
<path d="M26861 7584 c0 -11 3 -14 6 -6 3 7 2 16 -1 19 -3 4 -6 -2 -5 -13z"/>
<path d="M19432 6290 c0 -19 2 -27 5 -17 2 9 2 25 0 35 -3 9 -5 1 -5 -18z"/>
<path d="M30552 6290 c0 -19 2 -27 5 -17 2 9 2 25 0 35 -3 9 -5 1 -5 -18z"/>
<path d="M5930 5893 l-265 -268 268 265 c147 146 267 266 267 267 0 8 -24 -16
-270 -264z"/>
<path d="M44050 5895 c146 -146 267 -265 270 -265 3 0 -114 119 -260 265 -146
146 -267 265 -270 265 -3 0 114 -119 260 -265z"/>
<path d="M19421 6134 c0 -11 3 -14 6 -6 3 7 2 16 -1 19 -3 4 -6 -2 -5 -13z"/>
<path d="M30561 6134 c0 -11 3 -14 6 -6 3 7 2 16 -1 19 -3 4 -6 -2 -5 -13z"/>
<path d="M4790 4765 c-41 -41 -72 -75 -69 -75 2 0 38 34 79 75 41 41 72 75 69
75 -2 0 -38 -34 -79 -75z"/>
<path d="M45120 4837 c0 -1 35 -36 78 -77 l77 -75 -75 78 c-69 71 -80 82 -80
74z"/>
</g>
</svg>
